<?xml version="1.0" standalone="no"?>
  <!DOCTYPE svg PUBLIC "-//W3C//DTD SVG 1.1//EN" "http://www.w3.org/Graphics/SVG/1.1/DTD/svg11.dtd" >
  <svg>
  <metadata>
  Created by font-carrier
  </metadata>
  <defs>
  <font id="SFProDisplay-Regular" horiz-adv-x="2662" vert-adv-y="2662" >
    <font-face
      
      font-family="SF Pro Display"
      
      font-weight="400"
      
      font-stretch="normal"
      
      units-per-em="2048"
      
      ascent="1950"
      
      descent="-494"
      
    />
      <missing-glyph />

      

      
      <glyph glyph-name="uni41" unicode="&#x41;" d="M1078 0L1267 0L735 1443L557 1443L25 0L214 0L359 413L933 413ZM643 1224L649 1224L880 566L412 566Z"  horiz-adv-x="1292" vert-adv-y="2048"  />

      
      <glyph glyph-name="unic0" unicode="&#xc0;" d="M1078 0L1267 0L735 1443L557 1443L25 0L214 0L359 413L933 413ZM643 1224L649 1224L880 566L412 566ZM556 1560L710 1560L490 1849L296 1849Z"  horiz-adv-x="1292" vert-adv-y="2048"  />

      
      <glyph glyph-name="unic1" unicode="&#xc1;" d="M1078 0L1267 0L735 1443L557 1443L25 0L214 0L359 413L933 413ZM643 1224L649 1224L880 566L412 566ZM736 1560L996 1849L802 1849L582 1560Z"  horiz-adv-x="1292" vert-adv-y="2048"  />

      
      <glyph glyph-name="unic4" unicode="&#xc4;" d="M1078 0L1267 0L735 1443L557 1443L25 0L214 0L359 413L933 413ZM643 1224L649 1224L880 566L412 566ZM460 1604C520 1604 570 1653 570 1714C570 1775 520 1824 460 1824C400 1824 350 1775 350 1714C350 1653 400 1604 460 1604ZM832 1604C892 1604 942 1653 942 1714C942 1775 892 1824 832 1824C772 1824 722 1775 722 1714C722 1653 772 1604 832 1604Z"  horiz-adv-x="1292" vert-adv-y="2048"  />

      
      <glyph glyph-name="uni01DE" unicode="&#x01DE;" d="M1078 0L1267 0L735 1443L557 1443L25 0L214 0L359 413L933 413ZM643 1224L649 1224L880 566L412 566ZM469 1766C411 1766 364 1719 364 1660C364 1601 411 1554 469 1554C526 1554 573 1601 573 1660C573 1719 526 1766 469 1766ZM329 2025L329 1909L963 1909L963 2025ZM823 1766C766 1766 719 1719 719 1660C719 1601 766 1554 823 1554C881 1554 928 1601 928 1660C928 1719 881 1766 823 1766Z"  horiz-adv-x="1292" vert-adv-y="2048"  />

      
      <glyph glyph-name="unic5" unicode="&#xc5;" d="M1078 0L1267 0L735 1443L557 1443L25 0L214 0L359 413L933 413ZM643 1224L649 1224L880 566L412 566ZM646 1516C751 1516 837 1602 837 1707C837 1812 751 1898 646 1898C541 1898 455 1812 455 1707C455 1602 541 1516 646 1516ZM646 1604C589 1604 543 1650 543 1707C543 1764 589 1810 646 1810C703 1810 749 1764 749 1707C749 1650 703 1604 646 1604Z"  horiz-adv-x="1292" vert-adv-y="2048"  />

      
      <glyph glyph-name="uni01FA" unicode="&#x01FA;" d="M1078 0L1267 0L735 1443L557 1443L25 0L214 0L359 413L933 413ZM643 1224L649 1224L880 566L412 566ZM646 1490C748 1490 831 1573 831 1675C831 1777 748 1860 646 1860C544 1860 461 1777 461 1675C461 1573 544 1490 646 1490ZM646 1574C590 1574 545 1619 545 1675C545 1731 590 1776 646 1776C702 1776 747 1731 747 1675C747 1619 702 1574 646 1574ZM708 2096L580 1910L718 1910L864 2096Z"  horiz-adv-x="1292" vert-adv-y="2048"  />

      
      <glyph glyph-name="unic3" unicode="&#xc3;" d="M1078 0L1267 0L735 1443L557 1443L25 0L214 0L359 413L933 413ZM643 1224L649 1224L880 566L412 566ZM777 1580C886 1580 965 1676 965 1836L847 1836C847 1740 820 1693 778 1693C703 1693 658 1845 517 1845C403 1845 327 1754 327 1590L445 1590C441 1683 470 1732 516 1732C595 1732 645 1580 777 1580Z"  horiz-adv-x="1292" vert-adv-y="2048"  />

      
      <glyph glyph-name="uni1EB0" unicode="&#x1EB0;" d="M1078 0L1267 0L735 1443L557 1443L25 0L214 0L359 413L933 413ZM643 1224L649 1224L880 566L412 566ZM967 1821L840 1821C829 1719 751 1653 646 1653C541 1653 463 1719 452 1821L325 1821C337 1658 464 1543 646 1543C828 1543 955 1658 967 1821ZM742 1830L574 2046L404 2046L596 1830Z"  horiz-adv-x="1292" vert-adv-y="2048"  />

      
      <glyph glyph-name="uni01E0" unicode="&#x01E0;" d="M1078 0L1267 0L735 1443L557 1443L25 0L214 0L359 413L933 413ZM643 1224L649 1224L880 566L412 566ZM646 1574C711 1574 763 1626 763 1691C763 1754 711 1806 646 1806C581 1806 529 1754 529 1691C529 1626 581 1574 646 1574ZM963 2025L329 2025L329 1909L963 1909Z"  horiz-adv-x="1292" vert-adv-y="2048"  />

      
      <glyph glyph-name="uni1E00" unicode="&#x1E00;" d="M1078 0L1267 0L735 1443L557 1443L25 0L214 0L359 413L933 413ZM643 1224L649 1224L880 566L412 566ZM646-471C751-471 837-385 837-280C837-175 751-89 646-89C541-89 455-175 455-280C455-385 541-471 646-471ZM646-383C589-383 543-337 543-280C543-223 589-177 646-177C703-177 749-223 749-280C749-337 703-383 646-383Z"  horiz-adv-x="1292" vert-adv-y="2048"  />

      
      <glyph glyph-name="unic2" unicode="&#xc2;" d="M1078 0L1267 0L735 1443L557 1443L25 0L214 0L359 413L933 413ZM643 1224L649 1224L880 566L412 566ZM579 1838L296 1540L462 1540L643 1732L649 1732L830 1540L996 1540L713 1838Z"  horiz-adv-x="1292" vert-adv-y="2048"  />

      
      <glyph glyph-name="uni1EAC" unicode="&#x1EAC;" d="M1078 0L1267 0L735 1443L557 1443L25 0L214 0L359 413L933 413ZM643 1224L649 1224L880 566L412 566ZM579 1838L296 1540L462 1540L643 1732L649 1732L830 1540L996 1540L713 1838ZM646-389C713-389 767-335 767-268C767-201 713-147 646-147C579-147 525-201 525-268C525-335 579-389 646-389Z"  horiz-adv-x="1292" vert-adv-y="2048"  />

      
      <glyph glyph-name="uni1EA4" unicode="&#x1EA4;" d="M1078 0L1267 0L735 1443L557 1443L25 0L214 0L359 413L933 413ZM643 1224L649 1224L880 566L412 566ZM570 1798L288 1540L462 1540L643 1708L649 1708L830 1540L1004 1540L722 1798ZM820 1830L966 1830L1158 2046L988 2046Z"  horiz-adv-x="1292" vert-adv-y="2048"  />

      
      <glyph glyph-name="uni1EAA" unicode="&#x1EAA;" d="M1078 0L1267 0L735 1443L557 1443L25 0L214 0L359 413L933 413ZM643 1224L649 1224L880 566L412 566ZM766 1836C878 1836 957 1926 957 2043L840 2043C835 1977 802 1940 762 1940C694 1940 662 2066 526 2066C407 2066 335 1979 335 1859L452 1859C456 1926 485 1965 530 1965C598 1965 630 1836 766 1836ZM570 1788L288 1540L462 1540L643 1700L649 1700L830 1540L1004 1540L722 1788Z"  horiz-adv-x="1292" vert-adv-y="2048"  />

      
      <glyph glyph-name="uni1EA6" unicode="&#x1EA6;" d="M1078 0L1267 0L735 1443L557 1443L25 0L214 0L359 413L933 413ZM643 1224L649 1224L880 566L412 566ZM570 1798L288 1540L462 1540L643 1708L649 1708L830 1540L1004 1540L722 1798ZM1008 1830L840 2046L670 2046L862 1830Z"  horiz-adv-x="1292" vert-adv-y="2048"  />

      
      <glyph glyph-name="uni1EA8" unicode="&#x1EA8;" d="M1078 0L1267 0L735 1443L557 1443L25 0L214 0L359 413L933 413ZM643 1224L649 1224L880 566L412 566ZM570 1798L288 1540L462 1540L643 1708L649 1708L830 1540L1004 1540L722 1798ZM770 1945C792 1956 822 1962 856 1962C899 1962 931 1935 931 1901C931 1862 900 1827 853 1811L930 1750C1000 1772 1044 1836 1044 1907C1044 1995 975 2053 875 2053C840 2053 799 2045 770 2031Z"  horiz-adv-x="1292" vert-adv-y="2048"  />

      
      <glyph glyph-name="uni0102" unicode="&#x0102;" d="M1078 0L1267 0L735 1443L557 1443L25 0L214 0L359 413L933 413ZM643 1224L649 1224L880 566L412 566ZM325 1848C338 1684 454 1542 646 1542C838 1542 954 1684 967 1848L840 1848C828 1727 751 1654 646 1654C541 1654 464 1727 452 1848Z"  horiz-adv-x="1292" vert-adv-y="2048"  />

      
      <glyph glyph-name="uni1EAE" unicode="&#x1EAE;" d="M1078 0L1267 0L735 1443L557 1443L25 0L214 0L359 413L933 413ZM643 1224L649 1224L880 566L412 566ZM325 1821C337 1658 464 1543 646 1543C828 1543 955 1658 967 1821L840 1821C829 1719 751 1653 646 1653C541 1653 463 1719 452 1821ZM550 1830L696 1830L888 2046L718 2046Z"  horiz-adv-x="1292" vert-adv-y="2048"  />

      
      <glyph glyph-name="uni1EB4" unicode="&#x1EB4;" d="M1078 0L1267 0L735 1443L557 1443L25 0L214 0L359 413L933 413ZM643 1224L649 1224L880 566L412 566ZM325 1801C337 1668 464 1543 646 1543C828 1543 955 1668 967 1801L840 1801C829 1722 751 1653 646 1653C541 1653 463 1722 452 1801ZM766 1836C878 1836 957 1926 957 2043L840 2043C835 1977 802 1940 762 1940C694 1940 662 2066 526 2066C407 2066 335 1979 335 1859L452 1859C456 1926 485 1965 530 1965C598 1965 630 1836 766 1836Z"  horiz-adv-x="1292" vert-adv-y="2048"  />

      
      <glyph glyph-name="uni1EB2" unicode="&#x1EB2;" d="M1078 0L1267 0L735 1443L557 1443L25 0L214 0L359 413L933 413ZM643 1224L649 1224L880 566L412 566ZM492 2003C516 2015 554 2024 589 2024C637 2024 675 1993 675 1953C675 1910 639 1868 586 1853L643 1772C737 1806 797 1880 797 1960C797 2060 722 2125 608 2125C561 2125 518 2114 492 2099ZM325 1821C337 1658 464 1543 646 1543C828 1543 955 1658 967 1821L840 1821C829 1719 751 1653 646 1653C541 1653 463 1719 452 1821Z"  horiz-adv-x="1292" vert-adv-y="2048"  />

      
      <glyph glyph-name="uni1EB6" unicode="&#x1EB6;" d="M1078 0L1267 0L735 1443L557 1443L25 0L214 0L359 413L933 413ZM643 1224L649 1224L880 566L412 566ZM325 1848C338 1684 454 1542 646 1542C838 1542 954 1684 967 1848L840 1848C828 1727 751 1654 646 1654C541 1654 464 1727 452 1848ZM646-389C713-389 767-335 767-268C767-201 713-147 646-147C579-147 525-201 525-268C525-335 579-389 646-389Z"  horiz-adv-x="1292" vert-adv-y="2048"  />

      
      <glyph glyph-name="uni0202" unicode="&#x0202;" d="M1078 0L1267 0L735 1443L557 1443L25 0L214 0L359 413L933 413ZM643 1224L649 1224L880 566L412 566ZM325 1542L452 1542C464 1663 541 1736 646 1736C751 1736 828 1663 840 1542L967 1542C954 1706 838 1848 646 1848C454 1848 338 1706 325 1542Z"  horiz-adv-x="1292" vert-adv-y="2048"  />

      
      <glyph glyph-name="uni01CD" unicode="&#x01CD;" d="M1078 0L1267 0L735 1443L557 1443L25 0L214 0L359 413L933 413ZM643 1224L649 1224L880 566L412 566ZM579 1550L713 1550L996 1848L830 1848L649 1656L643 1656L462 1848L296 1848Z"  horiz-adv-x="1292" vert-adv-y="2048"  />

      
      <glyph glyph-name="uni0226" unicode="&#x0226;" d="M1078 0L1267 0L735 1443L557 1443L25 0L214 0L359 413L933 413ZM643 1224L649 1224L880 566L412 566ZM646 1585C713 1585 767 1639 767 1706C767 1773 713 1827 646 1827C579 1827 525 1773 525 1706C525 1639 579 1585 646 1585Z"  horiz-adv-x="1292" vert-adv-y="2048"  />

      
      <glyph glyph-name="uni1EA0" unicode="&#x1EA0;" d="M1078 0L1267 0L735 1443L557 1443L25 0L214 0L359 413L933 413ZM643 1224L649 1224L880 566L412 566ZM646-389C713-389 767-335 767-268C767-201 713-147 646-147C579-147 525-201 525-268C525-335 579-389 646-389Z"  horiz-adv-x="1292" vert-adv-y="2048"  />

      
      <glyph glyph-name="uni1EA2" unicode="&#x1EA2;" d="M1078 0L1267 0L735 1443L557 1443L25 0L214 0L359 413L933 413ZM643 1224L649 1224L880 566L412 566ZM486 1753C515 1766 553 1772 586 1772C636 1772 673 1742 673 1704C673 1661 637 1622 583 1605L643 1527C738 1559 802 1630 802 1711C802 1809 721 1871 607 1871C564 1871 520 1864 486 1849Z"  horiz-adv-x="1292" vert-adv-y="2048"  />

      
      <glyph glyph-name="uni0200" unicode="&#x0200;" d="M1078 0L1267 0L735 1443L557 1443L25 0L214 0L359 413L933 413ZM643 1224L649 1224L880 566L412 566ZM716 1560L870 1560L650 1849L456 1849ZM396 1560L550 1560L330 1849L136 1849Z"  horiz-adv-x="1292" vert-adv-y="2048"  />

      
      <glyph glyph-name="uni0100" unicode="&#x0100;" d="M1078 0L1267 0L735 1443L557 1443L25 0L214 0L359 413L933 413ZM643 1224L649 1224L880 566L412 566ZM963 1750L329 1750L329 1634L963 1634Z"  horiz-adv-x="1292" vert-adv-y="2048"  />

      
      <glyph glyph-name="uni0104" unicode="&#x0104;" d="M643 1224L649 1224L880 566L412 566ZM1252-413L1252-292C1228-297 1199-301 1171-301C1106-301 1052-269 1052-204C1052-135 1121-61 1257-1L1266 3L735 1443L557 1443L25 0L214 0L359 413L933 413L1074 11C950-68 906-154 906-242C906-355 1004-430 1134-430C1189-430 1234-422 1252-413Z"  horiz-adv-x="1292" vert-adv-y="2048"  />

      
      <glyph glyph-name="uni42" unicode="&#x42;" d="M685 0C992 0 1174 151 1174 405C1174 597 1048 735 852 760L852 768C991 793 1101 933 1101 1083C1101 1299 934 1443 687 1443L140 1443L140 0ZM320 1284L646 1284C821 1284 919 1205 919 1062C919 906 803 821 590 821L320 821ZM320 159L320 666L641 666C871 666 989 581 989 414C989 247 875 159 658 159Z"  horiz-adv-x="1238" vert-adv-y="2048"  />

      
      <glyph glyph-name="uni1E06" unicode="&#x1E06;" d="M685 0C992 0 1174 151 1174 405C1174 597 1048 735 852 760L852 768C991 793 1101 933 1101 1083C1101 1299 934 1443 687 1443L140 1443L140 0ZM320 1284L646 1284C821 1284 919 1205 919 1062C919 906 803 821 590 821L320 821ZM320 159L320 666L641 666C871 666 989 581 989 414C989 247 875 159 658 159ZM878-217L244-217L244-333L878-333Z"  horiz-adv-x="1238" vert-adv-y="2048"  />

      
      <glyph glyph-name="uni1E04" unicode="&#x1E04;" d="M685 0C992 0 1174 151 1174 405C1174 597 1048 735 852 760L852 768C991 793 1101 933 1101 1083C1101 1299 934 1443 687 1443L140 1443L140 0ZM320 1284L646 1284C821 1284 919 1205 919 1062C919 906 803 821 590 821L320 821ZM320 159L320 666L641 666C871 666 989 581 989 414C989 247 875 159 658 159ZM561-389C628-389 682-335 682-268C682-201 628-147 561-147C494-147 440-201 440-268C440-335 494-389 561-389Z"  horiz-adv-x="1238" vert-adv-y="2048"  />

      
      <glyph glyph-name="uni1E02" unicode="&#x1E02;" d="M685 0C992 0 1174 151 1174 405C1174 597 1048 735 852 760L852 768C991 793 1101 933 1101 1083C1101 1299 934 1443 687 1443L140 1443L140 0ZM320 1284L646 1284C821 1284 919 1205 919 1062C919 906 803 821 590 821L320 821ZM320 159L320 666L641 666C871 666 989 581 989 414C989 247 875 159 658 159ZM561 1585C628 1585 682 1639 682 1706C682 1773 628 1827 561 1827C494 1827 440 1773 440 1706C440 1639 494 1585 561 1585Z"  horiz-adv-x="1238" vert-adv-y="2048"  />

      
      <glyph glyph-name="uni43" unicode="&#x43;" d="M734-24C1053-24 1267 135 1333 420L1151 420C1099 244 947 142 735 142C450 142 269 368 269 722C269 1073 452 1301 734 1301C940 1301 1105 1177 1151 988L1333 988C1287 1276 1048 1467 734 1467C339 1467 84 1175 84 722C84 265 336-24 734-24Z"  horiz-adv-x="1405" vert-adv-y="2048"  />

      
      <glyph glyph-name="uni0106" unicode="&#x0106;" d="M734-24C1053-24 1267 135 1333 420L1151 420C1099 244 947 142 735 142C450 142 269 368 269 722C269 1073 452 1301 734 1301C940 1301 1105 1177 1151 988L1333 988C1287 1276 1048 1467 734 1467C339 1467 84 1175 84 722C84 265 336-24 734-24ZM824 1562L1084 1851L890 1851L670 1562Z"  horiz-adv-x="1405" vert-adv-y="2048"  />

      
      <glyph glyph-name="uni010C" unicode="&#x010C;" d="M734-24C1053-24 1267 135 1333 420L1151 420C1099 244 947 142 735 142C450 142 269 368 269 722C269 1073 452 1301 734 1301C940 1301 1105 1177 1151 988L1333 988C1287 1276 1048 1467 734 1467C339 1467 84 1175 84 722C84 265 336-24 734-24ZM667 1552L801 1552L1084 1850L918 1850L737 1658L731 1658L550 1850L384 1850Z"  horiz-adv-x="1405" vert-adv-y="2048"  />

      
      <glyph glyph-name="uni0108" unicode="&#x0108;" d="M734-24C1053-24 1267 135 1333 420L1151 420C1099 244 947 142 735 142C450 142 269 368 269 722C269 1073 452 1301 734 1301C940 1301 1105 1177 1151 988L1333 988C1287 1276 1048 1467 734 1467C339 1467 84 1175 84 722C84 265 336-24 734-24ZM667 1840L384 1542L550 1542L731 1734L737 1734L918 1542L1084 1542L801 1840Z"  horiz-adv-x="1405" vert-adv-y="2048"  />

      
      <glyph glyph-name="uni010A" unicode="&#x010A;" d="M734-24C1053-24 1267 135 1333 420L1151 420C1099 244 947 142 735 142C450 142 269 368 269 722C269 1073 452 1301 734 1301C940 1301 1105 1177 1151 988L1333 988C1287 1276 1048 1467 734 1467C339 1467 84 1175 84 722C84 265 336-24 734-24ZM734 1587C801 1587 855 1641 855 1708C855 1775 801 1829 734 1829C667 1829 613 1775 613 1708C613 1641 667 1587 734 1587Z"  horiz-adv-x="1405" vert-adv-y="2048"  />

      
      <glyph glyph-name="unic7" unicode="&#xc7;" d="M1333 988C1287 1276 1048 1467 734 1467C339 1467 84 1175 84 722C84 287 313 4 678-22L624-159L624-228L694-228C796-228 840-246 840-292C840-338 796-364 713-364C671-364 610-357 588-352L588-454C614-462 680-469 738-468C868-466 972-404 972-290C972-188 888-132 758-130L805-21C1085 1 1272 157 1333 420L1151 420C1099 244 947 142 735 142C450 142 269 368 269 722C269 1073 452 1301 734 1301C940 1301 1105 1177 1151 988Z"  horiz-adv-x="1405" vert-adv-y="2048"  />

      
      <glyph glyph-name="uni1E08" unicode="&#x1E08;" d="M1084 1851L890 1851L670 1562L824 1562ZM1333 988C1287 1276 1048 1467 734 1467C339 1467 84 1175 84 722C84 287 313 4 678-22L624-159L624-228L694-228C796-228 840-246 840-292C840-338 796-364 713-364C671-364 610-357 588-352L588-454C614-462 680-469 738-468C868-466 972-404 972-290C972-188 888-132 758-130L805-21C1085 1 1272 157 1333 420L1151 420C1099 244 947 142 735 142C450 142 269 368 269 722C269 1073 452 1301 734 1301C940 1301 1105 1177 1151 988Z"  horiz-adv-x="1405" vert-adv-y="2048"  />

      
      <glyph glyph-name="uni44" unicode="&#x44;" d="M140 1443L140 0L625 0C1054 0 1306 267 1306 722C1306 1176 1053 1443 625 1443ZM320 1281L613 1281C941 1281 1122 1081 1122 720C1122 362 940 162 613 162L320 162Z"  horiz-adv-x="1389" vert-adv-y="2048"  />

      
      <glyph glyph-name="uni1E0A" unicode="&#x1E0A;" d="M140 1443L140 0L625 0C1054 0 1306 267 1306 722C1306 1176 1053 1443 625 1443ZM320 1281L613 1281C941 1281 1122 1081 1122 720C1122 362 940 162 613 162L320 162ZM550 1585C617 1585 671 1639 671 1706C671 1773 617 1827 550 1827C483 1827 429 1773 429 1706C429 1639 483 1585 550 1585Z"  horiz-adv-x="1389" vert-adv-y="2048"  />

      
      <glyph glyph-name="uni1E12" unicode="&#x1E12;" d="M140 1443L140 0L625 0C1054 0 1306 267 1306 722C1306 1176 1053 1443 625 1443ZM320 1281L613 1281C941 1281 1122 1081 1122 720C1122 362 940 162 613 162L320 162ZM483-127L200-425L366-425L547-233L553-233L734-425L900-425L617-127Z"  horiz-adv-x="1389" vert-adv-y="2048"  />

      
      <glyph glyph-name="uni1E10" unicode="&#x1E10;" d="M140 1443L140 0L625 0C1054 0 1306 267 1306 722C1306 1176 1053 1443 625 1443ZM320 1281L613 1281C941 1281 1122 1081 1122 720C1122 362 940 162 613 162L320 162ZM522-486L656-127L504-127L396-486Z"  horiz-adv-x="1389" vert-adv-y="2048"  />

      
      <glyph glyph-name="uni1E0E" unicode="&#x1E0E;" d="M140 1443L140 0L625 0C1054 0 1306 267 1306 722C1306 1176 1053 1443 625 1443ZM320 1281L613 1281C941 1281 1122 1081 1122 720C1122 362 940 162 613 162L320 162ZM867-217L233-217L233-333L867-333Z"  horiz-adv-x="1389" vert-adv-y="2048"  />

      
      <glyph glyph-name="uni010E" unicode="&#x010E;" d="M140 1443L140 0L625 0C1054 0 1306 267 1306 722C1306 1176 1053 1443 625 1443ZM320 1281L613 1281C941 1281 1122 1081 1122 720C1122 362 940 162 613 162L320 162ZM483 1550L617 1550L900 1848L734 1848L553 1656L547 1656L366 1848L200 1848Z"  horiz-adv-x="1389" vert-adv-y="2048"  />

      
      <glyph glyph-name="uni1E0C" unicode="&#x1E0C;" d="M140 1443L140 0L625 0C1054 0 1306 267 1306 722C1306 1176 1053 1443 625 1443ZM320 1281L613 1281C941 1281 1122 1081 1122 720C1122 362 940 162 613 162L320 162ZM550-389C617-389 671-335 671-268C671-201 617-147 550-147C483-147 429-201 429-268C429-335 483-389 550-389Z"  horiz-adv-x="1389" vert-adv-y="2048"  />

      
      <glyph glyph-name="uni0110" unicode="&#x0110;" d="M333 162L333 663L610 663L610 826L333 826L333 1281L626 1281C954 1281 1135 1081 1135 720C1135 362 953 162 626 162ZM153 1443L153 826L24 826L24 663L153 663L153 0L638 0C1067 0 1319 267 1319 722C1319 1176 1066 1443 638 1443Z"  horiz-adv-x="1402" vert-adv-y="2048"  />

      
      <glyph glyph-name="uni45" unicode="&#x45;" d="M1034 162L320 162L320 658L997 658L997 818L320 818L320 1281L1034 1281L1034 1443L140 1443L140 0L1034 0Z"  horiz-adv-x="1131" vert-adv-y="2048"  />

      
      <glyph glyph-name="unic8" unicode="&#xc8;" d="M1034 162L320 162L320 658L997 658L997 818L320 818L320 1281L1034 1281L1034 1443L140 1443L140 0L1034 0ZM497 1560L651 1560L431 1849L237 1849Z"  horiz-adv-x="1131" vert-adv-y="2048"  />

      
      <glyph glyph-name="uni0204" unicode="&#x0204;" d="M1034 162L320 162L320 658L997 658L997 818L320 818L320 1281L1034 1281L1034 1443L140 1443L140 0L1034 0ZM657 1560L811 1560L591 1849L397 1849ZM337 1560L491 1560L271 1849L77 1849Z"  horiz-adv-x="1131" vert-adv-y="2048"  />

      
      <glyph glyph-name="unic9" unicode="&#xc9;" d="M1034 162L320 162L320 658L997 658L997 818L320 818L320 1281L1034 1281L1034 1443L140 1443L140 0L1034 0ZM677 1560L937 1849L743 1849L523 1560Z"  horiz-adv-x="1131" vert-adv-y="2048"  />

      
      <glyph glyph-name="unica" unicode="&#xca;" d="M1034 162L320 162L320 658L997 658L997 818L320 818L320 1281L1034 1281L1034 1443L140 1443L140 0L1034 0ZM520 1838L237 1540L403 1540L584 1732L590 1732L771 1540L937 1540L654 1838Z"  horiz-adv-x="1131" vert-adv-y="2048"  />

      
      <glyph glyph-name="uni1EC2" unicode="&#x1EC2;" d="M1034 162L320 162L320 658L997 658L997 818L320 818L320 1281L1034 1281L1034 1443L140 1443L140 0L1034 0ZM511 1798L229 1540L403 1540L584 1708L590 1708L771 1540L945 1540L663 1798ZM711 1945C733 1956 763 1962 797 1962C840 1962 872 1935 872 1901C872 1862 841 1827 794 1811L871 1750C941 1772 985 1836 985 1907C985 1995 916 2053 816 2053C781 2053 740 2045 711 2031Z"  horiz-adv-x="1131" vert-adv-y="2048"  />

      
      <glyph glyph-name="uni1EC0" unicode="&#x1EC0;" d="M1034 162L320 162L320 658L997 658L997 818L320 818L320 1281L1034 1281L1034 1443L140 1443L140 0L1034 0ZM511 1798L229 1540L403 1540L584 1708L590 1708L771 1540L945 1540L663 1798ZM949 1830L781 2046L611 2046L803 1830Z"  horiz-adv-x="1131" vert-adv-y="2048"  />

      
      <glyph glyph-name="uni1EC4" unicode="&#x1EC4;" d="M1034 162L320 162L320 658L997 658L997 818L320 818L320 1281L1034 1281L1034 1443L140 1443L140 0L1034 0ZM707 1836C819 1836 898 1926 898 2043L781 2043C776 1977 743 1940 703 1940C635 1940 603 2066 467 2066C348 2066 276 1979 276 1859L393 1859C397 1926 426 1965 471 1965C539 1965 571 1836 707 1836ZM511 1788L229 1540L403 1540L584 1700L590 1700L771 1540L945 1540L663 1788Z"  horiz-adv-x="1131" vert-adv-y="2048"  />

      
      <glyph glyph-name="uni1EC6" unicode="&#x1EC6;" d="M1034 162L320 162L320 658L997 658L997 818L320 818L320 1281L1034 1281L1034 1443L140 1443L140 0L1034 0ZM520 1838L237 1540L403 1540L584 1732L590 1732L771 1540L937 1540L654 1838ZM587-389C654-389 708-335 708-268C708-201 654-147 587-147C520-147 466-201 466-268C466-335 520-389 587-389Z"  horiz-adv-x="1131" vert-adv-y="2048"  />

      
      <glyph glyph-name="uni1EBE" unicode="&#x1EBE;" d="M1034 162L320 162L320 658L997 658L997 818L320 818L320 1281L1034 1281L1034 1443L140 1443L140 0L1034 0ZM511 1798L229 1540L403 1540L584 1708L590 1708L771 1540L945 1540L663 1798ZM761 1830L907 1830L1099 2046L929 2046Z"  horiz-adv-x="1131" vert-adv-y="2048"  />

      
      <glyph glyph-name="unicb" unicode="&#xcb;" d="M1034 162L320 162L320 658L997 658L997 818L320 818L320 1281L1034 1281L1034 1443L140 1443L140 0L1034 0ZM401 1604C461 1604 511 1653 511 1714C511 1775 461 1824 401 1824C341 1824 291 1775 291 1714C291 1653 341 1604 401 1604ZM773 1604C833 1604 883 1653 883 1714C883 1775 833 1824 773 1824C713 1824 663 1775 663 1714C663 1653 713 1604 773 1604Z"  horiz-adv-x="1131" vert-adv-y="2048"  />

      
      <glyph glyph-name="uni1EB8" unicode="&#x1EB8;" d="M1034 162L320 162L320 658L997 658L997 818L320 818L320 1281L1034 1281L1034 1443L140 1443L140 0L1034 0ZM587-389C654-389 708-335 708-268C708-201 654-147 587-147C520-147 466-201 466-268C466-335 520-389 587-389Z"  horiz-adv-x="1131" vert-adv-y="2048"  />

      
      <glyph glyph-name="uni0206" unicode="&#x0206;" d="M1034 162L320 162L320 658L997 658L997 818L320 818L320 1281L1034 1281L1034 1443L140 1443L140 0L1034 0ZM266 1542L393 1542C405 1663 482 1736 587 1736C692 1736 769 1663 781 1542L908 1542C895 1706 779 1848 587 1848C395 1848 279 1706 266 1542Z"  horiz-adv-x="1131" vert-adv-y="2048"  />

      
      <glyph glyph-name="uni1EBA" unicode="&#x1EBA;" d="M1034 162L320 162L320 658L997 658L997 818L320 818L320 1281L1034 1281L1034 1443L140 1443L140 0L1034 0ZM427 1753C456 1766 494 1772 527 1772C577 1772 614 1742 614 1704C614 1661 578 1622 524 1605L584 1527C679 1559 743 1630 743 1711C743 1809 662 1871 548 1871C505 1871 461 1864 427 1849Z"  horiz-adv-x="1131" vert-adv-y="2048"  />

      
      <glyph glyph-name="uni011A" unicode="&#x011A;" d="M1034 162L320 162L320 658L997 658L997 818L320 818L320 1281L1034 1281L1034 1443L140 1443L140 0L1034 0ZM520 1550L654 1550L937 1848L771 1848L590 1656L584 1656L403 1848L237 1848Z"  horiz-adv-x="1131" vert-adv-y="2048"  />

      
      <glyph glyph-name="uni0112" unicode="&#x0112;" d="M1034 162L320 162L320 658L997 658L997 818L320 818L320 1281L1034 1281L1034 1443L140 1443L140 0L1034 0ZM904 1750L270 1750L270 1634L904 1634Z"  horiz-adv-x="1131" vert-adv-y="2048"  />

      
      <glyph glyph-name="uni1E14" unicode="&#x1E14;" d="M1034 162L320 162L320 658L997 658L997 818L320 818L320 1281L1034 1281L1034 1443L140 1443L140 0L1034 0ZM270 1592L904 1592L904 1708L270 1708ZM659 1830L491 2046L321 2046L513 1830Z"  horiz-adv-x="1131" vert-adv-y="2048"  />

      
      <glyph glyph-name="uni1E16" unicode="&#x1E16;" d="M1034 162L320 162L320 658L997 658L997 818L320 818L320 1281L1034 1281L1034 1443L140 1443L140 0L1034 0ZM904 1592L904 1708L270 1708L270 1592ZM521 1830L667 1830L859 2046L689 2046Z"  horiz-adv-x="1131" vert-adv-y="2048"  />

      
      <glyph glyph-name="uni1EBC" unicode="&#x1EBC;" d="M1034 162L320 162L320 658L997 658L997 818L320 818L320 1281L1034 1281L1034 1443L140 1443L140 0L1034 0ZM718 1580C827 1580 906 1676 906 1836L788 1836C788 1740 761 1693 719 1693C644 1693 599 1845 458 1845C344 1845 268 1754 268 1590L386 1590C382 1683 411 1732 457 1732C536 1732 586 1580 718 1580Z"  horiz-adv-x="1131" vert-adv-y="2048"  />

      
      <glyph glyph-name="uni1E18" unicode="&#x1E18;" d="M1034 162L320 162L320 658L997 658L997 818L320 818L320 1281L1034 1281L1034 1443L140 1443L140 0L1034 0ZM520-127L237-425L403-425L584-233L590-233L771-425L937-425L654-127Z"  horiz-adv-x="1131" vert-adv-y="2048"  />

      
      <glyph glyph-name="uni0114" unicode="&#x0114;" d="M1034 162L320 162L320 658L997 658L997 818L320 818L320 1281L1034 1281L1034 1443L140 1443L140 0L1034 0ZM266 1848C279 1684 395 1542 587 1542C779 1542 895 1684 908 1848L781 1848C769 1727 692 1654 587 1654C482 1654 405 1727 393 1848Z"  horiz-adv-x="1131" vert-adv-y="2048"  />

      
      <glyph glyph-name="uni1E1A" unicode="&#x1E1A;" d="M1034 162L320 162L320 658L997 658L997 818L320 818L320 1281L1034 1281L1034 1443L140 1443L140 0L1034 0ZM718-344C827-344 906-248 906-88L788-88C788-184 761-231 719-231C644-231 599-79 458-79C344-79 268-170 268-334L386-334C382-241 411-192 457-192C536-192 586-344 718-344Z"  horiz-adv-x="1131" vert-adv-y="2048"  />

      
      <glyph glyph-name="uni0116" unicode="&#x0116;" d="M1034 162L320 162L320 658L997 658L997 818L320 818L320 1281L1034 1281L1034 1443L140 1443L140 0L1034 0ZM587 1585C654 1585 708 1639 708 1706C708 1773 654 1827 587 1827C520 1827 466 1773 466 1706C466 1639 520 1585 587 1585Z"  horiz-adv-x="1131" vert-adv-y="2048"  />

      
      <glyph glyph-name="uni0228" unicode="&#x0228;" d="M1034 1281L1034 1443L140 1443L140 0L540 0L477-159L477-228L547-228C649-228 693-246 693-292C693-338 649-364 566-364C524-364 463-357 441-352L441-454C467-462 533-469 591-468C721-466 825-404 825-290C825-188 741-132 611-130L667 0L1034 0L1034 162L320 162L320 658L997 658L997 818L320 818L320 1281Z"  horiz-adv-x="1131" vert-adv-y="2048"  />

      
      <glyph glyph-name="uni1E1C" unicode="&#x1E1C;" d="M781 1848C769 1727 692 1654 587 1654C482 1654 405 1727 393 1848L266 1848C279 1684 395 1542 587 1542C779 1542 895 1684 908 1848ZM1034 1281L1034 1443L140 1443L140 0L540 0L477-159L477-228L547-228C649-228 693-246 693-292C693-338 649-364 566-364C524-364 463-357 441-352L441-454C467-462 533-469 591-468C721-466 825-404 825-290C825-188 741-132 611-130L667 0L1034 0L1034 162L320 162L320 658L997 658L997 818L320 818L320 1281Z"  horiz-adv-x="1131" vert-adv-y="2048"  />

      
      <glyph glyph-name="uni0118" unicode="&#x0118;" d="M140 0L790 0L790-4C696-76 646-154 646-242C646-355 744-430 874-430C929-430 974-422 992-413L992-292C968-297 939-301 911-301C846-301 792-269 792-204C792-134 870-52 1014 6L1034 14L1034 162L320 162L320 658L997 658L997 818L320 818L320 1281L1034 1281L1034 1443L140 1443Z"  horiz-adv-x="1131" vert-adv-y="2048"  />

      
      <glyph glyph-name="uni46" unicode="&#x46;" d="M320 0L320 625L959 625L959 785L320 785L320 1281L1016 1281L1016 1443L140 1443L140 0Z"  horiz-adv-x="1081" vert-adv-y="2048"  />

      
      <glyph glyph-name="uni1E1E" unicode="&#x1E1E;" d="M320 0L320 625L959 625L959 785L320 785L320 1281L1016 1281L1016 1443L140 1443L140 0ZM578 1585C645 1585 699 1639 699 1706C699 1773 645 1827 578 1827C511 1827 457 1773 457 1706C457 1639 511 1585 578 1585Z"  horiz-adv-x="1081" vert-adv-y="2048"  />

      
      <glyph glyph-name="uni47" unicode="&#x47;" d="M1357 597L1357 734L770 734L770 576L1177 576L1177 550C1177 308 1001 142 745 142C451 142 269 367 269 730C269 1087 448 1301 745 1301C948 1301 1099 1190 1159 995L1348 995C1294 1282 1057 1467 745 1467C341 1467 84 1180 84 729C84 270 342-24 745-24C1130-24 1357 207 1357 597Z"  horiz-adv-x="1447" vert-adv-y="2048"  />

      
      <glyph glyph-name="uni01F4" unicode="&#x01F4;" d="M1357 597L1357 734L770 734L770 576L1177 576L1177 550C1177 308 1001 142 745 142C451 142 269 367 269 730C269 1087 448 1301 745 1301C948 1301 1099 1190 1159 995L1348 995C1294 1282 1057 1467 745 1467C341 1467 84 1180 84 729C84 270 342-24 745-24C1130-24 1357 207 1357 597ZM835 1560L1095 1849L901 1849L681 1560Z"  horiz-adv-x="1447" vert-adv-y="2048"  />

      
      <glyph glyph-name="uni01E6" unicode="&#x01E6;" d="M1357 597L1357 734L770 734L770 576L1177 576L1177 550C1177 308 1001 142 745 142C451 142 269 367 269 730C269 1087 448 1301 745 1301C948 1301 1099 1190 1159 995L1348 995C1294 1282 1057 1467 745 1467C341 1467 84 1180 84 729C84 270 342-24 745-24C1130-24 1357 207 1357 597ZM678 1550L812 1550L1095 1848L929 1848L748 1656L742 1656L561 1848L395 1848Z"  horiz-adv-x="1447" vert-adv-y="2048"  />

      
      <glyph glyph-name="uni011C" unicode="&#x011C;" d="M1357 597L1357 734L770 734L770 576L1177 576L1177 550C1177 308 1001 142 745 142C451 142 269 367 269 730C269 1087 448 1301 745 1301C948 1301 1099 1190 1159 995L1348 995C1294 1282 1057 1467 745 1467C341 1467 84 1180 84 729C84 270 342-24 745-24C1130-24 1357 207 1357 597ZM678 1838L395 1540L561 1540L742 1732L748 1732L929 1540L1095 1540L812 1838Z"  horiz-adv-x="1447" vert-adv-y="2048"  />

      
      <glyph glyph-name="uni011E" unicode="&#x011E;" d="M1357 597L1357 734L770 734L770 576L1177 576L1177 550C1177 308 1001 142 745 142C451 142 269 367 269 730C269 1087 448 1301 745 1301C948 1301 1099 1190 1159 995L1348 995C1294 1282 1057 1467 745 1467C341 1467 84 1180 84 729C84 270 342-24 745-24C1130-24 1357 207 1357 597ZM424 1848C437 1684 553 1542 745 1542C937 1542 1053 1684 1066 1848L939 1848C927 1727 850 1654 745 1654C640 1654 563 1727 551 1848Z"  horiz-adv-x="1447" vert-adv-y="2048"  />

      
      <glyph glyph-name="uni1E20" unicode="&#x1E20;" d="M1357 597L1357 734L770 734L770 576L1177 576L1177 550C1177 308 1001 142 745 142C451 142 269 367 269 730C269 1087 448 1301 745 1301C948 1301 1099 1190 1159 995L1348 995C1294 1282 1057 1467 745 1467C341 1467 84 1180 84 729C84 270 342-24 745-24C1130-24 1357 207 1357 597ZM1062 1750L428 1750L428 1634L1062 1634Z"  horiz-adv-x="1447" vert-adv-y="2048"  />

      
      <glyph glyph-name="uni0120" unicode="&#x0120;" d="M1357 597L1357 734L770 734L770 576L1177 576L1177 550C1177 308 1001 142 745 142C451 142 269 367 269 730C269 1087 448 1301 745 1301C948 1301 1099 1190 1159 995L1348 995C1294 1282 1057 1467 745 1467C341 1467 84 1180 84 729C84 270 342-24 745-24C1130-24 1357 207 1357 597ZM745 1585C812 1585 866 1639 866 1706C866 1773 812 1827 745 1827C678 1827 624 1773 624 1706C624 1639 678 1585 745 1585Z"  horiz-adv-x="1447" vert-adv-y="2048"  />

      
      <glyph glyph-name="uni0122" unicode="&#x0122;" d="M1357 597L1357 734L770 734L770 576L1177 576L1177 550C1177 308 1001 142 745 142C451 142 269 367 269 730C269 1087 448 1301 745 1301C948 1301 1099 1190 1159 995L1348 995C1294 1282 1057 1467 745 1467C341 1467 84 1180 84 729C84 270 342-24 745-24C1130-24 1357 207 1357 597ZM717-486L851-127L699-127L591-486Z"  horiz-adv-x="1447" vert-adv-y="2048"  />

      
      <glyph glyph-name="uni48" unicode="&#x48;" d="M1292 0L1292 1443L1112 1443L1112 819L320 819L320 1443L140 1443L140 0L320 0L320 657L1112 657L1112 0Z"  horiz-adv-x="1432" vert-adv-y="2048"  />

      
      <glyph glyph-name="uni1E26" unicode="&#x1E26;" d="M1292 0L1292 1443L1112 1443L1112 819L320 819L320 1443L140 1443L140 0L320 0L320 657L1112 657L1112 0ZM530 1604C590 1604 640 1653 640 1714C640 1775 590 1824 530 1824C470 1824 420 1775 420 1714C420 1653 470 1604 530 1604ZM902 1604C962 1604 1012 1653 1012 1714C1012 1775 962 1824 902 1824C842 1824 792 1775 792 1714C792 1653 842 1604 902 1604Z"  horiz-adv-x="1432" vert-adv-y="2048"  />

      
      <glyph glyph-name="uni021E" unicode="&#x021E;" d="M1292 0L1292 1443L1112 1443L1112 819L320 819L320 1443L140 1443L140 0L320 0L320 657L1112 657L1112 0ZM649 1550L783 1550L1066 1848L900 1848L719 1656L713 1656L532 1848L366 1848Z"  horiz-adv-x="1432" vert-adv-y="2048"  />

      
      <glyph glyph-name="uni0124" unicode="&#x0124;" d="M1292 0L1292 1443L1112 1443L1112 819L320 819L320 1443L140 1443L140 0L320 0L320 657L1112 657L1112 0ZM649 1838L366 1540L532 1540L713 1732L719 1732L900 1540L1066 1540L783 1838Z"  horiz-adv-x="1432" vert-adv-y="2048"  />

      
      <glyph glyph-name="uni1E24" unicode="&#x1E24;" d="M1292 0L1292 1443L1112 1443L1112 819L320 819L320 1443L140 1443L140 0L320 0L320 657L1112 657L1112 0ZM716-389C783-389 837-335 837-268C837-201 783-147 716-147C649-147 595-201 595-268C595-335 649-389 716-389Z"  horiz-adv-x="1432" vert-adv-y="2048"  />

      
      <glyph glyph-name="uni1E22" unicode="&#x1E22;" d="M1292 0L1292 1443L1112 1443L1112 819L320 819L320 1443L140 1443L140 0L320 0L320 657L1112 657L1112 0ZM716 1585C783 1585 837 1639 837 1706C837 1773 783 1827 716 1827C649 1827 595 1773 595 1706C595 1639 649 1585 716 1585Z"  horiz-adv-x="1432" vert-adv-y="2048"  />

      
      <glyph glyph-name="uni1E2A" unicode="&#x1E2A;" d="M1292 0L1292 1443L1112 1443L1112 819L320 819L320 1443L140 1443L140 0L320 0L320 657L1112 657L1112 0ZM395-100C408-264 524-406 716-406C908-406 1024-264 1037-100L910-100C898-221 821-294 716-294C611-294 534-221 522-100Z"  horiz-adv-x="1432" vert-adv-y="2048"  />

      
      <glyph glyph-name="uni1E28" unicode="&#x1E28;" d="M1112 1443L1112 819L320 819L320 1443L140 1443L140 0L193 0L130-159L130-228L200-228C302-228 346-246 346-292C346-338 302-364 219-364C177-364 116-357 94-352L94-454C120-462 186-469 244-468C374-466 478-404 478-290C478-188 394-132 264-130L320 0L320 8L320 657L1112 657L1112 0L1292 0L1292 1443Z"  horiz-adv-x="1432" vert-adv-y="2048"  />

      
      <glyph glyph-name="uni0126" unicode="&#x0126;" d="M1112 819L320 819L320 1075L1112 1075ZM1427 1218L1292 1218L1292 1443L1112 1443L1112 1218L320 1218L320 1443L140 1443L140 1218L5 1218L5 1075L140 1075L140 0L320 0L320 657L1112 657L1112 0L1292 0L1292 1075L1427 1075Z"  horiz-adv-x="1432" vert-adv-y="2048"  />

      
      <glyph glyph-name="uni49" unicode="&#x49;" d="M320 0L320 1443L140 1443L140 0Z"  horiz-adv-x="460" vert-adv-y="2048"  />

      
      <glyph glyph-name="uni0130" unicode="&#x0130;" d="M320 0L320 1443L140 1443L140 0ZM230 1585C297 1585 351 1639 351 1706C351 1773 297 1827 230 1827C163 1827 109 1773 109 1706C109 1639 163 1585 230 1585Z"  horiz-adv-x="460" vert-adv-y="2048"  />

      
      <glyph glyph-name="unicc" unicode="&#xcc;" d="M320 0L320 1443L140 1443L140 0ZM140 1560L294 1560L74 1849L-120 1849Z"  horiz-adv-x="460" vert-adv-y="2048"  />

      
      <glyph glyph-name="uni0208" unicode="&#x0208;" d="M320 0L320 1443L140 1443L140 0ZM300 1560L454 1560L234 1849L40 1849ZM-20 1560L134 1560L-86 1849L-280 1849Z"  horiz-adv-x="460" vert-adv-y="2048"  />

      
      <glyph glyph-name="unicd" unicode="&#xcd;" d="M320 0L320 1443L140 1443L140 0ZM320 1560L580 1849L386 1849L166 1560Z"  horiz-adv-x="460" vert-adv-y="2048"  />

      
      <glyph glyph-name="unice" unicode="&#xce;" d="M320 0L320 1443L140 1443L140 0ZM163 1838L-120 1540L46 1540L227 1732L233 1732L414 1540L580 1540L297 1838Z"  horiz-adv-x="460" vert-adv-y="2048"  />

      
      <glyph glyph-name="uni01CF" unicode="&#x01CF;" d="M320 0L320 1443L140 1443L140 0ZM163 1550L297 1550L580 1848L414 1848L233 1656L227 1656L46 1848L-120 1848Z"  horiz-adv-x="460" vert-adv-y="2048"  />

      
      <glyph glyph-name="unicf" unicode="&#xcf;" d="M320 0L320 1443L140 1443L140 0ZM44 1604C104 1604 154 1653 154 1714C154 1775 104 1824 44 1824C-16 1824-66 1775-66 1714C-66 1653-16 1604 44 1604ZM416 1604C476 1604 526 1653 526 1714C526 1775 476 1824 416 1824C356 1824 306 1775 306 1714C306 1653 356 1604 416 1604Z"  horiz-adv-x="460" vert-adv-y="2048"  />

      
      <glyph glyph-name="uni1E2E" unicode="&#x1E2E;" d="M320 0L320 1443L140 1443L140 0ZM148 1830L294 1830L486 2046L316 2046ZM53 1554C110 1554 157 1601 157 1660C157 1719 110 1766 53 1766C-5 1766-52 1719-52 1660C-52 1601-5 1554 53 1554ZM407 1554C465 1554 512 1601 512 1660C512 1719 465 1766 407 1766C350 1766 303 1719 303 1660C303 1601 350 1554 407 1554Z"  horiz-adv-x="460" vert-adv-y="2048"  />

      
      <glyph glyph-name="uni012C" unicode="&#x012C;" d="M320 0L320 1443L140 1443L140 0ZM-91 1848C-78 1684 38 1542 230 1542C422 1542 538 1684 551 1848L424 1848C412 1727 335 1654 230 1654C125 1654 48 1727 36 1848Z"  horiz-adv-x="460" vert-adv-y="2048"  />

      
      <glyph glyph-name="uni1ECA" unicode="&#x1ECA;" d="M320 0L320 1443L140 1443L140 0ZM230-389C297-389 351-335 351-268C351-201 297-147 230-147C163-147 109-201 109-268C109-335 163-389 230-389Z"  horiz-adv-x="460" vert-adv-y="2048"  />

      
      <glyph glyph-name="uni020A" unicode="&#x020A;" d="M320 0L320 1443L140 1443L140 0ZM-91 1542L36 1542C48 1663 125 1736 230 1736C335 1736 412 1663 424 1542L551 1542C538 1706 422 1848 230 1848C38 1848-78 1706-91 1542Z"  horiz-adv-x="460" vert-adv-y="2048"  />

      
      <glyph glyph-name="uni012A" unicode="&#x012A;" d="M320 0L320 1443L140 1443L140 0ZM547 1750L-87 1750L-87 1634L547 1634Z"  horiz-adv-x="460" vert-adv-y="2048"  />

      
      <glyph glyph-name="uni1E2C" unicode="&#x1E2C;" d="M320 0L320 1443L140 1443L140 0ZM361-344C470-344 549-248 549-88L431-88C431-184 404-231 362-231C287-231 242-79 101-79C-13-79-89-170-89-334L29-334C25-241 54-192 100-192C179-192 229-344 361-344Z"  horiz-adv-x="460" vert-adv-y="2048"  />

      
      <glyph glyph-name="uni1EC8" unicode="&#x1EC8;" d="M320 0L320 1443L140 1443L140 0ZM70 1753C99 1766 137 1772 170 1772C220 1772 257 1742 257 1704C257 1661 221 1622 167 1605L227 1527C322 1559 386 1630 386 1711C386 1809 305 1871 191 1871C148 1871 104 1864 70 1849Z"  horiz-adv-x="460" vert-adv-y="2048"  />

      
      <glyph glyph-name="uni0128" unicode="&#x0128;" d="M320 0L320 1443L140 1443L140 0ZM361 1580C470 1580 549 1676 549 1836L431 1836C431 1740 404 1693 362 1693C287 1693 242 1845 101 1845C-13 1845-89 1754-89 1590L29 1590C25 1683 54 1732 100 1732C179 1732 229 1580 361 1580Z"  horiz-adv-x="460" vert-adv-y="2048"  />

      
      <glyph glyph-name="uni012E" unicode="&#x012E;" d="M140-4C52-74 2-154 2-242C2-355 100-430 230-430C285-430 330-422 348-413L348-292C324-297 295-301 267-301C202-301 148-269 148-204C148-135 221-62 314 0L320 4L320 1443L140 1443Z"  horiz-adv-x="460" vert-adv-y="2048"  />

      
      <glyph glyph-name="uni4a" unicode="&#x4a;" d="M42 339C42 120 210-34 450-34C716-34 874 128 874 402L874 1443L694 1443L694 403C694 227 608 132 449 132C318 132 225 217 221 339Z"  horiz-adv-x="1014" vert-adv-y="2048"  />

      
      <glyph glyph-name="uni0134" unicode="&#x0134;" d="M42 339C42 120 210-34 450-34C716-34 874 128 874 402L874 1443L694 1443L694 403C694 227 608 132 449 132C318 132 225 217 221 339ZM717 1838L434 1540L600 1540L781 1732L787 1732L968 1540L1134 1540L851 1838Z"  horiz-adv-x="1014" vert-adv-y="2048"  />

      
      <glyph glyph-name="uni4b" unicode="&#x4b;" d="M320 0L320 504L476 676L1017 0L1247 0L601 804L1194 1443L967 1443L330 739L320 739L320 1443L140 1443L140 0Z"  horiz-adv-x="1260" vert-adv-y="2048"  />

      
      <glyph glyph-name="uni1E30" unicode="&#x1E30;" d="M320 0L320 504L476 676L1017 0L1247 0L601 804L1194 1443L967 1443L330 739L320 739L320 1443L140 1443L140 0ZM699 1560L959 1849L765 1849L545 1560Z"  horiz-adv-x="1260" vert-adv-y="2048"  />

      
      <glyph glyph-name="uni01E8" unicode="&#x01E8;" d="M320 0L320 504L476 676L1017 0L1247 0L601 804L1194 1443L967 1443L330 739L320 739L320 1443L140 1443L140 0ZM542 1550L676 1550L959 1848L793 1848L612 1656L606 1656L425 1848L259 1848Z"  horiz-adv-x="1260" vert-adv-y="2048"  />

      
      <glyph glyph-name="uni1E32" unicode="&#x1E32;" d="M320 0L320 504L476 676L1017 0L1247 0L601 804L1194 1443L967 1443L330 739L320 739L320 1443L140 1443L140 0ZM609-389C676-389 730-335 730-268C730-201 676-147 609-147C542-147 488-201 488-268C488-335 542-389 609-389Z"  horiz-adv-x="1260" vert-adv-y="2048"  />

      
      <glyph glyph-name="uni1E34" unicode="&#x1E34;" d="M320 0L320 504L476 676L1017 0L1247 0L601 804L1194 1443L967 1443L330 739L320 739L320 1443L140 1443L140 0ZM926-217L292-217L292-333L926-333Z"  horiz-adv-x="1260" vert-adv-y="2048"  />

      
      <glyph glyph-name="uni0136" unicode="&#x0136;" d="M320 0L320 504L476 676L1017 0L1247 0L601 804L1194 1443L967 1443L330 739L320 739L320 1443L140 1443L140 0ZM581-486L715-127L563-127L455-486Z"  horiz-adv-x="1260" vert-adv-y="2048"  />

      
      <glyph glyph-name="uni4c" unicode="&#x4c;" d="M1016 162L320 162L320 1443L140 1443L140 0L1016 0Z"  horiz-adv-x="1074" vert-adv-y="2048"  />

      
      <glyph glyph-name="uni0139" unicode="&#x0139;" d="M1016 162L320 162L320 1443L140 1443L140 0L1016 0ZM320 1560L580 1849L386 1849L166 1560Z"  horiz-adv-x="1074" vert-adv-y="2048"  />

      
      <glyph glyph-name="uni1E3C" unicode="&#x1E3C;" d="M1016 162L320 162L320 1443L140 1443L140 0L1016 0ZM511-127L228-425L394-425L575-233L581-233L762-425L928-425L645-127Z"  horiz-adv-x="1074" vert-adv-y="2048"  />

      
      <glyph glyph-name="uni1E36" unicode="&#x1E36;" d="M1016 162L320 162L320 1443L140 1443L140 0L1016 0ZM578-389C645-389 699-335 699-268C699-201 645-147 578-147C511-147 457-201 457-268C457-335 511-389 578-389Z"  horiz-adv-x="1074" vert-adv-y="2048"  />

      
      <glyph glyph-name="uni1E38" unicode="&#x1E38;" d="M1016 162L320 162L320 1443L140 1443L140 0L1016 0ZM578-389C645-389 699-335 699-268C699-201 645-147 578-147C511-147 457-201 457-268C457-335 511-389 578-389ZM547 1750L-87 1750L-87 1634L547 1634Z"  horiz-adv-x="1074" vert-adv-y="2048"  />

      
      <glyph glyph-name="uni1E3A" unicode="&#x1E3A;" d="M1016 162L320 162L320 1443L140 1443L140 0L1016 0ZM895-217L261-217L261-333L895-333Z"  horiz-adv-x="1074" vert-adv-y="2048"  />

      
      <glyph glyph-name="uni013B" unicode="&#x013B;" d="M1016 162L320 162L320 1443L140 1443L140 0L1016 0ZM550-486L684-127L532-127L424-486Z"  horiz-adv-x="1074" vert-adv-y="2048"  />

      
      <glyph glyph-name="uni013D" unicode="&#x013D;" d="M589 1443L589 955L709 955L759 1443ZM1016 162L320 162L320 1443L140 1443L140 0L1016 0Z"  horiz-adv-x="1074" vert-adv-y="2048"  />

      
      <glyph glyph-name="uni0141" unicode="&#x0141;" d="M320 162L320 781L656 934L656 1077L320 924L320 1443L140 1443L140 842L18 786L18 643L140 699L140 0L1016 0L1016 162Z"  horiz-adv-x="1074" vert-adv-y="2048"  />

      
      <glyph glyph-name="uni4d" unicode="&#x4d;" d="M1562 0L1562 1443L1353 1443L855 239L847 239L349 1443L140 1443L140 0L308 0L308 1112L315 1112L775 10L927 10L1387 1112L1394 1112L1394 0Z"  horiz-adv-x="1702" vert-adv-y="2048"  />

      
      <glyph glyph-name="uni1E3E" unicode="&#x1E3E;" d="M1562 0L1562 1443L1353 1443L855 239L847 239L349 1443L140 1443L140 0L308 0L308 1112L315 1112L775 10L927 10L1387 1112L1394 1112L1394 0ZM941 1560L1201 1849L1007 1849L787 1560Z"  horiz-adv-x="1702" vert-adv-y="2048"  />

      
      <glyph glyph-name="uni1E40" unicode="&#x1E40;" d="M1562 0L1562 1443L1353 1443L855 239L847 239L349 1443L140 1443L140 0L308 0L308 1112L315 1112L775 10L927 10L1387 1112L1394 1112L1394 0ZM851 1585C918 1585 972 1639 972 1706C972 1773 918 1827 851 1827C784 1827 730 1773 730 1706C730 1639 784 1585 851 1585Z"  horiz-adv-x="1702" vert-adv-y="2048"  />

      
      <glyph glyph-name="uni1E42" unicode="&#x1E42;" d="M1562 0L1562 1443L1353 1443L855 239L847 239L349 1443L140 1443L140 0L308 0L308 1112L315 1112L775 10L927 10L1387 1112L1394 1112L1394 0ZM851-389C918-389 972-335 972-268C972-201 918-147 851-147C784-147 730-201 730-268C730-335 784-389 851-389Z"  horiz-adv-x="1702" vert-adv-y="2048"  />

      
      <glyph glyph-name="uni4e" unicode="&#x4e;" d="M318 0L318 1129L327 1129L1117 0L1292 0L1292 1443L1114 1443L1114 310L1105 310L315 1443L140 1443L140 0Z"  horiz-adv-x="1432" vert-adv-y="2048"  />

      
      <glyph glyph-name="uni01F8" unicode="&#x01F8;" d="M318 0L318 1129L327 1129L1117 0L1292 0L1292 1443L1114 1443L1114 310L1105 310L315 1443L140 1443L140 0ZM626 1560L780 1560L560 1849L366 1849Z"  horiz-adv-x="1432" vert-adv-y="2048"  />

      
      <glyph glyph-name="uni0143" unicode="&#x0143;" d="M318 0L318 1129L327 1129L1117 0L1292 0L1292 1443L1114 1443L1114 310L1105 310L315 1443L140 1443L140 0ZM806 1560L1066 1849L872 1849L652 1560Z"  horiz-adv-x="1432" vert-adv-y="2048"  />

      
      <glyph glyph-name="unid1" unicode="&#xd1;" d="M318 0L318 1129L327 1129L1117 0L1292 0L1292 1443L1114 1443L1114 310L1105 310L315 1443L140 1443L140 0ZM847 1580C956 1580 1035 1676 1035 1836L917 1836C917 1740 890 1693 848 1693C773 1693 728 1845 587 1845C473 1845 397 1754 397 1590L515 1590C511 1683 540 1732 586 1732C665 1732 715 1580 847 1580Z"  horiz-adv-x="1432" vert-adv-y="2048"  />

      
      <glyph glyph-name="uni1E46" unicode="&#x1E46;" d="M318 0L318 1129L327 1129L1117 0L1292 0L1292 1443L1114 1443L1114 310L1105 310L315 1443L140 1443L140 0ZM716-389C783-389 837-335 837-268C837-201 783-147 716-147C649-147 595-201 595-268C595-335 649-389 716-389Z"  horiz-adv-x="1432" vert-adv-y="2048"  />

      
      <glyph glyph-name="uni1E44" unicode="&#x1E44;" d="M318 0L318 1129L327 1129L1117 0L1292 0L1292 1443L1114 1443L1114 310L1105 310L315 1443L140 1443L140 0ZM716 1585C783 1585 837 1639 837 1706C837 1773 783 1827 716 1827C649 1827 595 1773 595 1706C595 1639 649 1585 716 1585Z"  horiz-adv-x="1432" vert-adv-y="2048"  />

      
      <glyph glyph-name="uni0147" unicode="&#x0147;" d="M318 0L318 1129L327 1129L1117 0L1292 0L1292 1443L1114 1443L1114 310L1105 310L315 1443L140 1443L140 0ZM649 1550L783 1550L1066 1848L900 1848L719 1656L713 1656L532 1848L366 1848Z"  horiz-adv-x="1432" vert-adv-y="2048"  />

      
      <glyph glyph-name="uni1E4A" unicode="&#x1E4A;" d="M318 0L318 1129L327 1129L1117 0L1292 0L1292 1443L1114 1443L1114 310L1105 310L315 1443L140 1443L140 0ZM649-127L366-425L532-425L713-233L719-233L900-425L1066-425L783-127Z"  horiz-adv-x="1432" vert-adv-y="2048"  />

      
      <glyph glyph-name="uni1E48" unicode="&#x1E48;" d="M318 0L318 1129L327 1129L1117 0L1292 0L1292 1443L1114 1443L1114 310L1105 310L315 1443L140 1443L140 0ZM1033-217L399-217L399-333L1033-333Z"  horiz-adv-x="1432" vert-adv-y="2048"  />

      
      <glyph glyph-name="uni0145" unicode="&#x0145;" d="M318 0L318 1129L327 1129L1117 0L1292 0L1292 1443L1114 1443L1114 310L1105 310L315 1443L140 1443L140 0ZM688-486L822-127L670-127L562-486Z"  horiz-adv-x="1432" vert-adv-y="2048"  />

      
      <glyph glyph-name="uni4f" unicode="&#x4f;" d="M749 1467C340 1467 84 1179 84 721C84 263 340-24 749-24C1158-24 1414 263 1414 721C1414 1179 1158 1467 749 1467ZM749 1301C1044 1301 1229 1077 1229 721C1229 366 1044 142 749 142C454 142 269 366 269 721C269 1077 454 1301 749 1301Z"  horiz-adv-x="1498" vert-adv-y="2048"  />

      
      <glyph glyph-name="unid6" unicode="&#xd6;" d="M749 1467C340 1467 84 1179 84 721C84 263 340-24 749-24C1158-24 1414 263 1414 721C1414 1179 1158 1467 749 1467ZM749 1301C1044 1301 1229 1077 1229 721C1229 366 1044 142 749 142C454 142 269 366 269 721C269 1077 454 1301 749 1301ZM563 1604C623 1604 673 1653 673 1714C673 1775 623 1824 563 1824C503 1824 453 1775 453 1714C453 1653 503 1604 563 1604ZM935 1604C995 1604 1045 1653 1045 1714C1045 1775 995 1824 935 1824C875 1824 825 1775 825 1714C825 1653 875 1604 935 1604Z"  horiz-adv-x="1498" vert-adv-y="2048"  />

      
      <glyph glyph-name="unid8" unicode="&#xd8;" d="M1135 1096C1196 1000 1229 872 1229 721C1229 366 1044 142 749 142C640 142 545 173 470 230ZM382 319C309 418 269 555 269 721C269 1077 454 1301 749 1301C872 1301 976 1262 1055 1191ZM1382 1419L1284 1488L1164 1333C1056 1420 915 1467 749 1467C340 1467 84 1179 84 721C84 489 150 301 268 171L158 29L258-47L362 89C466 16 597-24 749-24C1158-24 1414 263 1414 721C1414 939 1356 1119 1250 1247Z"  horiz-adv-x="1498" vert-adv-y="2048"  />

      
      <glyph glyph-name="unid5" unicode="&#xd5;" d="M749 1467C340 1467 84 1179 84 721C84 263 340-24 749-24C1158-24 1414 263 1414 721C1414 1179 1158 1467 749 1467ZM749 1301C1044 1301 1229 1077 1229 721C1229 366 1044 142 749 142C454 142 269 366 269 721C269 1077 454 1301 749 1301ZM880 1580C989 1580 1068 1676 1068 1836L950 1836C950 1740 923 1693 881 1693C806 1693 761 1845 620 1845C506 1845 430 1754 430 1590L548 1590C544 1683 573 1732 619 1732C698 1732 748 1580 880 1580Z"  horiz-adv-x="1498" vert-adv-y="2048"  />

      
      <glyph glyph-name="unid3" unicode="&#xd3;" d="M749 1467C340 1467 84 1179 84 721C84 263 340-24 749-24C1158-24 1414 263 1414 721C1414 1179 1158 1467 749 1467ZM749 1301C1044 1301 1229 1077 1229 721C1229 366 1044 142 749 142C454 142 269 366 269 721C269 1077 454 1301 749 1301ZM839 1560L1099 1849L905 1849L685 1560Z"  horiz-adv-x="1498" vert-adv-y="2048"  />

      
      <glyph glyph-name="unid4" unicode="&#xd4;" d="M749 1467C340 1467 84 1179 84 721C84 263 340-24 749-24C1158-24 1414 263 1414 721C1414 1179 1158 1467 749 1467ZM749 1301C1044 1301 1229 1077 1229 721C1229 366 1044 142 749 142C454 142 269 366 269 721C269 1077 454 1301 749 1301ZM682 1838L399 1540L565 1540L746 1732L752 1732L933 1540L1099 1540L816 1838Z"  horiz-adv-x="1498" vert-adv-y="2048"  />

      
      <glyph glyph-name="unid2" unicode="&#xd2;" d="M749 1467C340 1467 84 1179 84 721C84 263 340-24 749-24C1158-24 1414 263 1414 721C1414 1179 1158 1467 749 1467ZM749 1301C1044 1301 1229 1077 1229 721C1229 366 1044 142 749 142C454 142 269 366 269 721C269 1077 454 1301 749 1301ZM659 1560L813 1560L593 1849L399 1849Z"  horiz-adv-x="1498" vert-adv-y="2048"  />

      
      <glyph glyph-name="uni1ED4" unicode="&#x1ED4;" d="M749 1467C340 1467 84 1179 84 721C84 263 340-24 749-24C1158-24 1414 263 1414 721C1414 1179 1158 1467 749 1467ZM749 1301C1044 1301 1229 1077 1229 721C1229 366 1044 142 749 142C454 142 269 366 269 721C269 1077 454 1301 749 1301ZM673 1798L391 1540L565 1540L746 1708L752 1708L933 1540L1107 1540L825 1798ZM873 1945C895 1956 925 1962 959 1962C1002 1962 1034 1935 1034 1901C1034 1862 1003 1827 956 1811L1033 1750C1103 1772 1147 1836 1147 1907C1147 1995 1078 2053 978 2053C943 2053 902 2045 873 2031Z"  horiz-adv-x="1498" vert-adv-y="2048"  />

      
      <glyph glyph-name="uni1ED2" unicode="&#x1ED2;" d="M749 1467C340 1467 84 1179 84 721C84 263 340-24 749-24C1158-24 1414 263 1414 721C1414 1179 1158 1467 749 1467ZM749 1301C1044 1301 1229 1077 1229 721C1229 366 1044 142 749 142C454 142 269 366 269 721C269 1077 454 1301 749 1301ZM673 1798L391 1540L565 1540L746 1708L752 1708L933 1540L1107 1540L825 1798ZM1111 1830L943 2046L773 2046L965 1830Z"  horiz-adv-x="1498" vert-adv-y="2048"  />

      
      <glyph glyph-name="uni1ECC" unicode="&#x1ECC;" d="M749 1467C340 1467 84 1179 84 721C84 263 340-24 749-24C1158-24 1414 263 1414 721C1414 1179 1158 1467 749 1467ZM749 1301C1044 1301 1229 1077 1229 721C1229 366 1044 142 749 142C454 142 269 366 269 721C269 1077 454 1301 749 1301ZM749-389C816-389 870-335 870-268C870-201 816-147 749-147C682-147 628-201 628-268C628-335 682-389 749-389Z"  horiz-adv-x="1498" vert-adv-y="2048"  />

      
      <glyph glyph-name="uni020C" unicode="&#x020C;" d="M749 1467C340 1467 84 1179 84 721C84 263 340-24 749-24C1158-24 1414 263 1414 721C1414 1179 1158 1467 749 1467ZM749 1301C1044 1301 1229 1077 1229 721C1229 366 1044 142 749 142C454 142 269 366 269 721C269 1077 454 1301 749 1301ZM819 1560L973 1560L753 1849L559 1849ZM499 1560L653 1560L433 1849L239 1849Z"  horiz-adv-x="1498" vert-adv-y="2048"  />

      
      <glyph glyph-name="uni1E4C" unicode="&#x1E4C;" d="M749 1467C340 1467 84 1179 84 721C84 263 340-24 749-24C1158-24 1414 263 1414 721C1414 1179 1158 1467 749 1467ZM749 1301C1044 1301 1229 1077 1229 721C1229 366 1044 142 749 142C454 142 269 366 269 721C269 1077 454 1301 749 1301ZM875 1542C979 1542 1054 1635 1054 1781L943 1781C943 1697 918 1651 876 1651C798 1651 750 1799 625 1799C516 1799 444 1711 444 1561L555 1561C551 1642 580 1690 624 1690C700 1690 748 1542 875 1542ZM683 1850L829 1850L1021 2046L851 2046Z"  horiz-adv-x="1498" vert-adv-y="2048"  />

      
      <glyph glyph-name="uni1E52" unicode="&#x1E52;" d="M749 1467C340 1467 84 1179 84 721C84 263 340-24 749-24C1158-24 1414 263 1414 721C1414 1179 1158 1467 749 1467ZM749 1301C1044 1301 1229 1077 1229 721C1229 366 1044 142 749 142C454 142 269 366 269 721C269 1077 454 1301 749 1301ZM1066 1592L1066 1708L432 1708L432 1592ZM683 1830L829 1830L1021 2046L851 2046Z"  horiz-adv-x="1498" vert-adv-y="2048"  />

      
      <glyph glyph-name="uni1ED6" unicode="&#x1ED6;" d="M749 1467C340 1467 84 1179 84 721C84 263 340-24 749-24C1158-24 1414 263 1414 721C1414 1179 1158 1467 749 1467ZM749 1301C1044 1301 1229 1077 1229 721C1229 366 1044 142 749 142C454 142 269 366 269 721C269 1077 454 1301 749 1301ZM869 1836C981 1836 1060 1926 1060 2043L943 2043C938 1977 905 1940 865 1940C797 1940 765 2066 629 2066C510 2066 438 1979 438 1859L555 1859C559 1926 588 1965 633 1965C701 1965 733 1836 869 1836ZM673 1788L391 1540L565 1540L746 1700L752 1700L933 1540L1107 1540L825 1788Z"  horiz-adv-x="1498" vert-adv-y="2048"  />

      
      <glyph glyph-name="uni0230" unicode="&#x0230;" d="M749 1467C340 1467 84 1179 84 721C84 263 340-24 749-24C1158-24 1414 263 1414 721C1414 1179 1158 1467 749 1467ZM749 1301C1044 1301 1229 1077 1229 721C1229 366 1044 142 749 142C454 142 269 366 269 721C269 1077 454 1301 749 1301ZM749 1574C814 1574 866 1626 866 1691C866 1754 814 1806 749 1806C684 1806 632 1754 632 1691C632 1626 684 1574 749 1574ZM1066 2025L432 2025L432 1909L1066 1909Z"  horiz-adv-x="1498" vert-adv-y="2048"  />

      
      <glyph glyph-name="uni1E50" unicode="&#x1E50;" d="M749 1467C340 1467 84 1179 84 721C84 263 340-24 749-24C1158-24 1414 263 1414 721C1414 1179 1158 1467 749 1467ZM749 1301C1044 1301 1229 1077 1229 721C1229 366 1044 142 749 142C454 142 269 366 269 721C269 1077 454 1301 749 1301ZM432 1592L1066 1592L1066 1708L432 1708ZM821 1830L653 2046L483 2046L675 1830Z"  horiz-adv-x="1498" vert-adv-y="2048"  />

      
      <glyph glyph-name="uni01D1" unicode="&#x01D1;" d="M749 1467C340 1467 84 1179 84 721C84 263 340-24 749-24C1158-24 1414 263 1414 721C1414 1179 1158 1467 749 1467ZM749 1301C1044 1301 1229 1077 1229 721C1229 366 1044 142 749 142C454 142 269 366 269 721C269 1077 454 1301 749 1301ZM682 1550L816 1550L1099 1848L933 1848L752 1656L746 1656L565 1848L399 1848Z"  horiz-adv-x="1498" vert-adv-y="2048"  />

      
      <glyph glyph-name="uni01FE" unicode="&#x01FE;" d="M1126 1849L932 1849L712 1560L866 1560ZM1135 1096C1196 1000 1229 872 1229 721C1229 366 1044 142 749 142C640 142 545 173 470 230ZM382 319C309 418 269 555 269 721C269 1077 454 1301 749 1301C872 1301 976 1262 1055 1191ZM1382 1419L1284 1488L1164 1333C1056 1420 915 1467 749 1467C340 1467 84 1179 84 721C84 489 150 301 268 171L158 29L258-47L362 89C466 16 597-24 749-24C1158-24 1414 263 1414 721C1414 939 1356 1119 1250 1247Z"  horiz-adv-x="1498" vert-adv-y="2048"  />

      
      <glyph glyph-name="uni0150" unicode="&#x0150;" d="M749 1467C340 1467 84 1179 84 721C84 263 340-24 749-24C1158-24 1414 263 1414 721C1414 1179 1158 1467 749 1467ZM749 1301C1044 1301 1229 1077 1229 721C1229 366 1044 142 749 142C454 142 269 366 269 721C269 1077 454 1301 749 1301ZM999 1560L1259 1849L1065 1849L845 1560ZM679 1560L939 1849L745 1849L525 1560Z"  horiz-adv-x="1498" vert-adv-y="2048"  />

      
      <glyph glyph-name="uni014E" unicode="&#x014E;" d="M749 1467C340 1467 84 1179 84 721C84 263 340-24 749-24C1158-24 1414 263 1414 721C1414 1179 1158 1467 749 1467ZM749 1301C1044 1301 1229 1077 1229 721C1229 366 1044 142 749 142C454 142 269 366 269 721C269 1077 454 1301 749 1301ZM428 1848C441 1684 557 1542 749 1542C941 1542 1057 1684 1070 1848L943 1848C931 1727 854 1654 749 1654C644 1654 567 1727 555 1848Z"  horiz-adv-x="1498" vert-adv-y="2048"  />

      
      <glyph glyph-name="uni020E" unicode="&#x020E;" d="M749 1467C340 1467 84 1179 84 721C84 263 340-24 749-24C1158-24 1414 263 1414 721C1414 1179 1158 1467 749 1467ZM749 1301C1044 1301 1229 1077 1229 721C1229 366 1044 142 749 142C454 142 269 366 269 721C269 1077 454 1301 749 1301ZM428 1542L555 1542C567 1663 644 1736 749 1736C854 1736 931 1663 943 1542L1070 1542C1057 1706 941 1848 749 1848C557 1848 441 1706 428 1542Z"  horiz-adv-x="1498" vert-adv-y="2048"  />

      
      <glyph glyph-name="uni1ECE" unicode="&#x1ECE;" d="M749 1467C340 1467 84 1179 84 721C84 263 340-24 749-24C1158-24 1414 263 1414 721C1414 1179 1158 1467 749 1467ZM749 1301C1044 1301 1229 1077 1229 721C1229 366 1044 142 749 142C454 142 269 366 269 721C269 1077 454 1301 749 1301ZM589 1753C618 1766 656 1772 689 1772C739 1772 776 1742 776 1704C776 1661 740 1622 686 1605L746 1527C841 1559 905 1630 905 1711C905 1809 824 1871 710 1871C667 1871 623 1864 589 1849Z"  horiz-adv-x="1498" vert-adv-y="2048"  />

      
      <glyph glyph-name="uni022A" unicode="&#x022A;" d="M749 1467C340 1467 84 1179 84 721C84 263 340-24 749-24C1158-24 1414 263 1414 721C1414 1179 1158 1467 749 1467ZM749 1301C1044 1301 1229 1077 1229 721C1229 366 1044 142 749 142C454 142 269 366 269 721C269 1077 454 1301 749 1301ZM572 1766C514 1766 467 1719 467 1660C467 1601 514 1554 572 1554C629 1554 676 1601 676 1660C676 1719 629 1766 572 1766ZM432 2025L432 1909L1066 1909L1066 2025ZM926 1766C869 1766 822 1719 822 1660C822 1601 869 1554 926 1554C984 1554 1031 1601 1031 1660C1031 1719 984 1766 926 1766Z"  horiz-adv-x="1498" vert-adv-y="2048"  />

      
      <glyph glyph-name="uni022C" unicode="&#x022C;" d="M749 1467C340 1467 84 1179 84 721C84 263 340-24 749-24C1158-24 1414 263 1414 721C1414 1179 1158 1467 749 1467ZM749 1301C1044 1301 1229 1077 1229 721C1229 366 1044 142 749 142C454 142 269 366 269 721C269 1077 454 1301 749 1301ZM875 1542C979 1542 1054 1635 1054 1781L943 1781C943 1697 918 1651 876 1651C798 1651 750 1799 625 1799C516 1799 444 1711 444 1561L555 1561C551 1642 580 1690 624 1690C700 1690 748 1542 875 1542ZM1066 2025L432 2025L432 1909L1066 1909Z"  horiz-adv-x="1498" vert-adv-y="2048"  />

      
      <glyph glyph-name="uni022E" unicode="&#x022E;" d="M749 1467C340 1467 84 1179 84 721C84 263 340-24 749-24C1158-24 1414 263 1414 721C1414 1179 1158 1467 749 1467ZM749 1301C1044 1301 1229 1077 1229 721C1229 366 1044 142 749 142C454 142 269 366 269 721C269 1077 454 1301 749 1301ZM749 1585C816 1585 870 1639 870 1706C870 1773 816 1827 749 1827C682 1827 628 1773 628 1706C628 1639 682 1585 749 1585Z"  horiz-adv-x="1498" vert-adv-y="2048"  />

      
      <glyph glyph-name="uni1ED8" unicode="&#x1ED8;" d="M749 1467C340 1467 84 1179 84 721C84 263 340-24 749-24C1158-24 1414 263 1414 721C1414 1179 1158 1467 749 1467ZM749 1301C1044 1301 1229 1077 1229 721C1229 366 1044 142 749 142C454 142 269 366 269 721C269 1077 454 1301 749 1301ZM682 1838L399 1540L565 1540L746 1732L752 1732L933 1540L1099 1540L816 1838ZM749-389C816-389 870-335 870-268C870-201 816-147 749-147C682-147 628-201 628-268C628-335 682-389 749-389Z"  horiz-adv-x="1498" vert-adv-y="2048"  />

      
      <glyph glyph-name="uni1ED0" unicode="&#x1ED0;" d="M749 1467C340 1467 84 1179 84 721C84 263 340-24 749-24C1158-24 1414 263 1414 721C1414 1179 1158 1467 749 1467ZM749 1301C1044 1301 1229 1077 1229 721C1229 366 1044 142 749 142C454 142 269 366 269 721C269 1077 454 1301 749 1301ZM673 1798L391 1540L565 1540L746 1708L752 1708L933 1540L1107 1540L825 1798ZM923 1830L1069 1830L1261 2046L1091 2046Z"  horiz-adv-x="1498" vert-adv-y="2048"  />

      
      <glyph glyph-name="uni1E4E" unicode="&#x1E4E;" d="M749 1467C340 1467 84 1179 84 721C84 263 340-24 749-24C1158-24 1414 263 1414 721C1414 1179 1158 1467 749 1467ZM749 1301C1044 1301 1229 1077 1229 721C1229 366 1044 142 749 142C454 142 269 366 269 721C269 1077 454 1301 749 1301ZM875 1545C979 1545 1054 1636 1054 1779L943 1779C943 1696 918 1651 876 1651C798 1651 750 1796 625 1796C516 1796 444 1710 444 1563L555 1563C551 1643 580 1690 624 1690C700 1690 748 1545 875 1545ZM572 2076C514 2076 467 2029 467 1970C467 1911 514 1864 572 1864C629 1864 676 1911 676 1970C676 2029 629 2076 572 2076ZM926 2076C869 2076 822 2029 822 1970C822 1911 869 1864 926 1864C984 1864 1031 1911 1031 1970C1031 2029 984 2076 926 2076Z"  horiz-adv-x="1498" vert-adv-y="2048"  />

      
      <glyph glyph-name="uni014C" unicode="&#x014C;" d="M749 1467C340 1467 84 1179 84 721C84 263 340-24 749-24C1158-24 1414 263 1414 721C1414 1179 1158 1467 749 1467ZM749 1301C1044 1301 1229 1077 1229 721C1229 366 1044 142 749 142C454 142 269 366 269 721C269 1077 454 1301 749 1301ZM1066 1750L432 1750L432 1634L1066 1634Z"  horiz-adv-x="1498" vert-adv-y="2048"  />

      
      <glyph glyph-name="uni01EA" unicode="&#x01EA;" d="M980-430C1035-430 1080-422 1098-413L1098-292C1074-297 1045-301 1017-301C952-301 898-271 898-206C898-136 974-70 1080 22C1308 220 1414 428 1414 721C1414 1179 1158 1467 749 1467C340 1467 84 1179 84 721C84 263 340-24 749-24C793-24 850-14 890-6L890-10C802-76 752-154 752-242C752-355 850-430 980-430ZM749 1301C1044 1301 1229 1077 1229 721C1229 366 1044 142 749 142C454 142 269 366 269 721C269 1077 454 1301 749 1301Z"  horiz-adv-x="1498" vert-adv-y="2048"  />

      
      <glyph glyph-name="uni01EC" unicode="&#x01EC;" d="M980-430C1035-430 1080-422 1098-413L1098-292C1074-297 1045-301 1017-301C952-301 898-271 898-206C898-136 974-70 1080 22C1308 220 1414 428 1414 721C1414 1179 1158 1467 749 1467C340 1467 84 1179 84 721C84 263 340-24 749-24C793-24 850-14 890-6L890-10C802-76 752-154 752-242C752-355 850-430 980-430ZM749 1301C1044 1301 1229 1077 1229 721C1229 366 1044 142 749 142C454 142 269 366 269 721C269 1077 454 1301 749 1301ZM1066 1750L432 1750L432 1634L1066 1634Z"  horiz-adv-x="1497" vert-adv-y="2048"  />

      
      <glyph glyph-name="uni01A0" unicode="&#x01A0;" d="M749-24C1158-24 1414 263 1414 721C1414 958 1319 1201 1192 1291L1192 1297L1251 1297C1359 1297 1433 1367 1433 1468L1433 1660L1274 1660L1274 1520C1274 1451 1246 1427 1165 1427C1015 1427 898 1467 749 1467C340 1467 84 1179 84 721C84 263 340-24 749-24ZM749 142C454 142 269 366 269 721C269 1077 454 1301 749 1301C1044 1301 1229 1078 1229 721C1229 366 1044 142 749 142Z"  horiz-adv-x="1498" vert-adv-y="2048"  />

      
      <glyph glyph-name="uni1EE2" unicode="&#x1EE2;" d="M749-24C1158-24 1414 263 1414 721C1414 958 1319 1201 1192 1291L1192 1297L1251 1297C1359 1297 1433 1367 1433 1468L1433 1660L1274 1660L1274 1520C1274 1451 1246 1427 1165 1427C1015 1427 898 1467 749 1467C340 1467 84 1179 84 721C84 263 340-24 749-24ZM749 142C454 142 269 366 269 721C269 1077 454 1301 749 1301C1044 1301 1229 1078 1229 721C1229 366 1044 142 749 142ZM749-389C816-389 870-335 870-268C870-201 816-147 749-147C682-147 628-201 628-268C628-335 682-389 749-389Z"  horiz-adv-x="1498" vert-adv-y="2048"  />

      
      <glyph glyph-name="uni1EDE" unicode="&#x1EDE;" d="M749-24C1158-24 1414 263 1414 721C1414 958 1319 1201 1192 1291L1192 1297L1251 1297C1359 1297 1433 1367 1433 1468L1433 1660L1274 1660L1274 1520C1274 1451 1246 1427 1165 1427C1015 1427 898 1467 749 1467C340 1467 84 1179 84 721C84 263 340-24 749-24ZM749 142C454 142 269 366 269 721C269 1077 454 1301 749 1301C1044 1301 1229 1078 1229 721C1229 366 1044 142 749 142ZM589 1753C618 1766 656 1772 689 1772C739 1772 776 1742 776 1704C776 1661 740 1622 686 1605L746 1527C841 1559 905 1630 905 1711C905 1809 824 1871 710 1871C667 1871 623 1864 589 1849Z"  horiz-adv-x="1498" vert-adv-y="2048"  />

      
      <glyph glyph-name="uni1EE0" unicode="&#x1EE0;" d="M749-24C1158-24 1414 263 1414 721C1414 958 1319 1201 1192 1291L1192 1297L1251 1297C1359 1297 1433 1367 1433 1468L1433 1660L1274 1660L1274 1520C1274 1451 1246 1427 1165 1427C1015 1427 898 1467 749 1467C340 1467 84 1179 84 721C84 263 340-24 749-24ZM749 142C454 142 269 366 269 721C269 1077 454 1301 749 1301C1044 1301 1229 1078 1229 721C1229 366 1044 142 749 142ZM880 1580C989 1580 1068 1676 1068 1836L950 1836C950 1740 923 1693 881 1693C806 1693 761 1845 620 1845C506 1845 430 1754 430 1590L548 1590C544 1683 573 1732 619 1732C698 1732 748 1580 880 1580Z"  horiz-adv-x="1498" vert-adv-y="2048"  />

      
      <glyph glyph-name="uni1EDC" unicode="&#x1EDC;" d="M749-24C1158-24 1414 263 1414 721C1414 958 1319 1201 1192 1291L1192 1297L1251 1297C1359 1297 1433 1367 1433 1468L1433 1660L1274 1660L1274 1520C1274 1451 1246 1427 1165 1427C1015 1427 898 1467 749 1467C340 1467 84 1179 84 721C84 263 340-24 749-24ZM749 142C454 142 269 366 269 721C269 1077 454 1301 749 1301C1044 1301 1229 1078 1229 721C1229 366 1044 142 749 142ZM659 1560L813 1560L593 1849L399 1849Z"  horiz-adv-x="1498" vert-adv-y="2048"  />

      
      <glyph glyph-name="uni1EDA" unicode="&#x1EDA;" d="M749-24C1158-24 1414 263 1414 721C1414 958 1319 1201 1192 1291L1192 1297L1251 1297C1359 1297 1433 1367 1433 1468L1433 1660L1274 1660L1274 1520C1274 1451 1246 1427 1165 1427C1015 1427 898 1467 749 1467C340 1467 84 1179 84 721C84 263 340-24 749-24ZM749 142C454 142 269 366 269 721C269 1077 454 1301 749 1301C1044 1301 1229 1078 1229 721C1229 366 1044 142 749 142ZM839 1560L1099 1849L905 1849L685 1560Z"  horiz-adv-x="1498" vert-adv-y="2048"  />

      
      <glyph glyph-name="uni50" unicode="&#x50;" d="M140 1443L140 0L320 0L320 515L653 515C924 515 1117 706 1117 980C1117 1253 926 1443 655 1443ZM320 1283L608 1283C815 1283 932 1171 932 980C932 788 814 675 608 675L320 675Z"  horiz-adv-x="1183" vert-adv-y="2048"  />

      
      <glyph glyph-name="uni1E56" unicode="&#x1E56;" d="M140 1443L140 0L320 0L320 515L653 515C924 515 1117 706 1117 980C1117 1253 926 1443 655 1443ZM320 1283L608 1283C815 1283 932 1171 932 980C932 788 814 675 608 675L320 675ZM505 1585C572 1585 626 1639 626 1706C626 1773 572 1827 505 1827C438 1827 384 1773 384 1706C384 1639 438 1585 505 1585Z"  horiz-adv-x="1183" vert-adv-y="2048"  />

      
      <glyph glyph-name="uni1E54" unicode="&#x1E54;" d="M140 1443L140 0L320 0L320 515L653 515C924 515 1117 706 1117 980C1117 1253 926 1443 655 1443ZM320 1283L608 1283C815 1283 932 1171 932 980C932 788 814 675 608 675L320 675ZM595 1560L855 1849L661 1849L441 1560Z"  horiz-adv-x="1183" vert-adv-y="2048"  />

      
      <glyph glyph-name="uni51" unicode="&#x51;" d="M749-24C844-24 930-9 1007 21L1141-163L1343-163L1152 100C1319 226 1414 442 1414 721C1414 1179 1158 1467 749 1467C340 1467 84 1179 84 721C84 263 340-24 749-24ZM749 142C454 142 269 366 269 721C269 1077 454 1301 749 1301C1044 1301 1229 1077 1229 721C1229 509 1163 343 1047 245L924 413L722 413L902 165C855 150 804 142 749 142Z"  horiz-adv-x="1498" vert-adv-y="2048"  />

      
      <glyph glyph-name="uni52" unicode="&#x52;" d="M320 1283L657 1283C843 1283 955 1180 955 1007C955 830 850 730 665 730L320 730ZM320 571L665 571L665 571L974 0L1185 0L851 599C1032 656 1141 812 1141 1013C1141 1273 959 1443 681 1443L140 1443L140 0L320 0Z"  horiz-adv-x="1227" vert-adv-y="2048"  />

      
      <glyph glyph-name="uni0158" unicode="&#x0158;" d="M320 1283L657 1283C843 1283 955 1180 955 1007C955 830 850 730 665 730L320 730ZM320 571L665 571L665 571L974 0L1185 0L851 599C1032 656 1141 812 1141 1013C1141 1273 959 1443 681 1443L140 1443L140 0L320 0ZM468 1550L602 1550L885 1848L719 1848L538 1656L532 1656L351 1848L185 1848Z"  horiz-adv-x="1227" vert-adv-y="2048"  />

      
      <glyph glyph-name="uni1E5E" unicode="&#x1E5E;" d="M320 1283L657 1283C843 1283 955 1180 955 1007C955 830 850 730 665 730L320 730ZM320 571L665 571L665 571L974 0L1185 0L851 599C1032 656 1141 812 1141 1013C1141 1273 959 1443 681 1443L140 1443L140 0L320 0ZM852-217L218-217L218-333L852-333Z"  horiz-adv-x="1227" vert-adv-y="2048"  />

      
      <glyph glyph-name="uni1E5C" unicode="&#x1E5C;" d="M320 1283L657 1283C843 1283 955 1180 955 1007C955 830 850 730 665 730L320 730ZM320 571L665 571L665 571L974 0L1185 0L851 599C1032 656 1141 812 1141 1013C1141 1273 959 1443 681 1443L140 1443L140 0L320 0ZM535-389C602-389 656-335 656-268C656-201 602-147 535-147C468-147 414-201 414-268C414-335 468-389 535-389ZM852 1750L218 1750L218 1634L852 1634Z"  horiz-adv-x="1227" vert-adv-y="2048"  />

      
      <glyph glyph-name="uni0210" unicode="&#x0210;" d="M320 1283L657 1283C843 1283 955 1180 955 1007C955 830 850 730 665 730L320 730ZM320 571L665 571L665 571L974 0L1185 0L851 599C1032 656 1141 812 1141 1013C1141 1273 959 1443 681 1443L140 1443L140 0L320 0ZM605 1560L759 1560L539 1849L345 1849ZM285 1560L439 1560L219 1849L25 1849Z"  horiz-adv-x="1227" vert-adv-y="2048"  />

      
      <glyph glyph-name="uni0212" unicode="&#x0212;" d="M320 1283L657 1283C843 1283 955 1180 955 1007C955 830 850 730 665 730L320 730ZM320 571L665 571L665 571L974 0L1185 0L851 599C1032 656 1141 812 1141 1013C1141 1273 959 1443 681 1443L140 1443L140 0L320 0ZM214 1542L341 1542C353 1663 430 1736 535 1736C640 1736 717 1663 729 1542L856 1542C843 1706 727 1848 535 1848C343 1848 227 1706 214 1542Z"  horiz-adv-x="1227" vert-adv-y="2048"  />

      
      <glyph glyph-name="uni0154" unicode="&#x0154;" d="M320 1283L657 1283C843 1283 955 1180 955 1007C955 830 850 730 665 730L320 730ZM320 571L665 571L665 571L974 0L1185 0L851 599C1032 656 1141 812 1141 1013C1141 1273 959 1443 681 1443L140 1443L140 0L320 0ZM625 1560L885 1849L691 1849L471 1560Z"  horiz-adv-x="1227" vert-adv-y="2048"  />

      
      <glyph glyph-name="uni1E5A" unicode="&#x1E5A;" d="M320 1283L657 1283C843 1283 955 1180 955 1007C955 830 850 730 665 730L320 730ZM320 571L665 571L665 571L974 0L1185 0L851 599C1032 656 1141 812 1141 1013C1141 1273 959 1443 681 1443L140 1443L140 0L320 0ZM535-389C602-389 656-335 656-268C656-201 602-147 535-147C468-147 414-201 414-268C414-335 468-389 535-389Z"  horiz-adv-x="1227" vert-adv-y="2048"  />

      
      <glyph glyph-name="uni1E58" unicode="&#x1E58;" d="M320 1283L657 1283C843 1283 955 1180 955 1007C955 830 850 730 665 730L320 730ZM320 571L665 571L665 571L974 0L1185 0L851 599C1032 656 1141 812 1141 1013C1141 1273 959 1443 681 1443L140 1443L140 0L320 0ZM535 1585C602 1585 656 1639 656 1706C656 1773 602 1827 535 1827C468 1827 414 1773 414 1706C414 1639 468 1585 535 1585Z"  horiz-adv-x="1227" vert-adv-y="2048"  />

      
      <glyph glyph-name="uni0156" unicode="&#x0156;" d="M320 1283L657 1283C843 1283 955 1180 955 1007C955 830 850 730 665 730L320 730ZM320 571L665 571L665 571L974 0L1185 0L851 599C1032 656 1141 812 1141 1013C1141 1273 959 1443 681 1443L140 1443L140 0L320 0ZM507-486L641-127L489-127L381-486Z"  horiz-adv-x="1227" vert-adv-y="2048"  />

      
      <glyph glyph-name="uni53" unicode="&#x53;" d="M71 397C88 142 300-24 606-24C938-24 1146 141 1146 405C1146 612 1025 727 726 802L575 842C379 893 299 958 299 1067C299 1208 429 1305 616 1305C804 1305 929 1210 945 1055L1125 1055C1117 1297 909 1467 622 1467C322 1467 112 1299 112 1059C112 863 230 746 496 678L681 630C875 580 960 505 960 383C960 241 818 138 623 138C417 138 269 241 252 397Z"  horiz-adv-x="1216" vert-adv-y="2048"  />

      
      <glyph glyph-name="uni0160" unicode="&#x0160;" d="M71 397C88 142 300-24 606-24C938-24 1146 141 1146 405C1146 612 1025 727 726 802L575 842C379 893 299 958 299 1067C299 1208 429 1305 616 1305C804 1305 929 1210 945 1055L1125 1055C1117 1297 909 1467 622 1467C322 1467 112 1299 112 1059C112 863 230 746 496 678L681 630C875 580 960 505 960 383C960 241 818 138 623 138C417 138 269 241 252 397ZM555 1550L689 1550L972 1848L806 1848L625 1656L619 1656L438 1848L272 1848Z"  horiz-adv-x="1216" vert-adv-y="2048"  />

      
      <glyph glyph-name="uni015E" unicode="&#x015E;" d="M575 842C379 893 299 958 299 1067C299 1208 429 1305 616 1305C804 1305 929 1210 945 1055L1125 1055C1117 1297 909 1467 622 1467C322 1467 112 1299 112 1059C112 863 230 746 496 678L681 630C875 580 960 505 960 383C960 241 818 138 623 138C417 138 269 241 252 397L71 397C87 158 274-3 550-22L496-159L496-228L566-228C668-228 712-246 712-292C712-338 668-364 585-364C543-364 482-357 460-352L460-454C486-462 552-469 610-468C740-466 844-404 844-290C844-188 760-132 630-130L677-21C967 1 1146 160 1146 405C1146 612 1025 727 726 802Z"  horiz-adv-x="1216" vert-adv-y="2048"  />

      
      <glyph glyph-name="uni1E60" unicode="&#x1E60;" d="M71 397C88 142 300-24 606-24C938-24 1146 141 1146 405C1146 612 1025 727 726 802L575 842C379 893 299 958 299 1067C299 1208 429 1305 616 1305C804 1305 929 1210 945 1055L1125 1055C1117 1297 909 1467 622 1467C322 1467 112 1299 112 1059C112 863 230 746 496 678L681 630C875 580 960 505 960 383C960 241 818 138 623 138C417 138 269 241 252 397ZM622 1585C689 1585 743 1639 743 1706C743 1773 689 1827 622 1827C555 1827 501 1773 501 1706C501 1639 555 1585 622 1585Z"  horiz-adv-x="1216" vert-adv-y="2048"  />

      
      <glyph glyph-name="uni1E62" unicode="&#x1E62;" d="M71 397C88 142 300-24 606-24C938-24 1146 141 1146 405C1146 612 1025 727 726 802L575 842C379 893 299 958 299 1067C299 1208 429 1305 616 1305C804 1305 929 1210 945 1055L1125 1055C1117 1297 909 1467 622 1467C322 1467 112 1299 112 1059C112 863 230 746 496 678L681 630C875 580 960 505 960 383C960 241 818 138 623 138C417 138 269 241 252 397ZM606-389C673-389 727-335 727-268C727-201 673-147 606-147C539-147 485-201 485-268C485-335 539-389 606-389Z"  horiz-adv-x="1216" vert-adv-y="2048"  />

      
      <glyph glyph-name="uni0218" unicode="&#x0218;" d="M71 397C88 142 300-24 606-24C938-24 1146 141 1146 405C1146 612 1025 727 726 802L575 842C379 893 299 958 299 1067C299 1208 429 1305 616 1305C804 1305 929 1210 945 1055L1125 1055C1117 1297 909 1467 622 1467C322 1467 112 1299 112 1059C112 863 230 746 496 678L681 630C875 580 960 505 960 383C960 241 818 138 623 138C417 138 269 241 252 397ZM578-486L712-127L560-127L452-486Z"  horiz-adv-x="1216" vert-adv-y="2048"  />

      
      <glyph glyph-name="uni1E68" unicode="&#x1E68;" d="M71 397C88 142 300-24 606-24C938-24 1146 141 1146 405C1146 612 1025 727 726 802L575 842C379 893 299 958 299 1067C299 1208 429 1305 616 1305C804 1305 929 1210 945 1055L1125 1055C1117 1297 909 1467 622 1467C322 1467 112 1299 112 1059C112 863 230 746 496 678L681 630C875 580 960 505 960 383C960 241 818 138 623 138C417 138 269 241 252 397ZM606-389C673-389 727-335 727-268C727-201 673-147 606-147C539-147 485-201 485-268C485-335 539-389 606-389ZM622 1585C689 1585 743 1639 743 1706C743 1773 689 1827 622 1827C555 1827 501 1773 501 1706C501 1639 555 1585 622 1585Z"  horiz-adv-x="1216" vert-adv-y="2048"  />

      
      <glyph glyph-name="uni1E66" unicode="&#x1E66;" d="M71 397C88 142 300-24 606-24C938-24 1146 141 1146 405C1146 612 1025 727 726 802L575 842C379 893 299 958 299 1067C299 1208 429 1305 616 1305C804 1305 929 1210 945 1055L1125 1055C1117 1297 909 1467 622 1467C322 1467 112 1299 112 1059C112 863 230 746 496 678L681 630C875 580 960 505 960 383C960 241 818 138 623 138C417 138 269 241 252 397ZM546 1540L698 1540L980 1798L806 1798L625 1630L619 1630L438 1798L264 1798ZM622 1834C683 1834 731 1883 731 1944C731 2005 683 2053 622 2053C561 2053 513 2005 513 1944C513 1883 561 1834 622 1834Z"  horiz-adv-x="1216" vert-adv-y="2048"  />

      
      <glyph glyph-name="uni015C" unicode="&#x015C;" d="M71 397C88 142 300-24 606-24C938-24 1146 141 1146 405C1146 612 1025 727 726 802L575 842C379 893 299 958 299 1067C299 1208 429 1305 616 1305C804 1305 929 1210 945 1055L1125 1055C1117 1297 909 1467 622 1467C322 1467 112 1299 112 1059C112 863 230 746 496 678L681 630C875 580 960 505 960 383C960 241 818 138 623 138C417 138 269 241 252 397ZM555 1838L272 1540L438 1540L619 1732L625 1732L806 1540L972 1540L689 1838Z"  horiz-adv-x="1216" vert-adv-y="2048"  />

      
      <glyph glyph-name="uni1E64" unicode="&#x1E64;" d="M71 397C88 142 300-24 606-24C938-24 1146 141 1146 405C1146 612 1025 727 726 802L575 842C379 893 299 958 299 1067C299 1208 429 1305 616 1305C804 1305 929 1210 945 1055L1125 1055C1117 1297 909 1467 622 1467C322 1467 112 1299 112 1059C112 863 230 746 496 678L681 630C875 580 960 505 960 383C960 241 818 138 623 138C417 138 269 241 252 397ZM815 1560L1075 1849L881 1849L661 1560ZM445 1600C512 1600 566 1654 566 1721C566 1788 512 1842 445 1842C378 1842 324 1788 324 1721C324 1654 378 1600 445 1600Z"  horiz-adv-x="1216" vert-adv-y="2048"  />

      
      <glyph glyph-name="uni015A" unicode="&#x015A;" d="M71 397C88 142 300-24 606-24C938-24 1146 141 1146 405C1146 612 1025 727 726 802L575 842C379 893 299 958 299 1067C299 1208 429 1305 616 1305C804 1305 929 1210 945 1055L1125 1055C1117 1297 909 1467 622 1467C322 1467 112 1299 112 1059C112 863 230 746 496 678L681 630C875 580 960 505 960 383C960 241 818 138 623 138C417 138 269 241 252 397ZM712 1560L972 1849L778 1849L558 1560Z"  horiz-adv-x="1216" vert-adv-y="2048"  />

      
      <glyph glyph-name="uni1E9E" unicode="&#x1E9E;" d="M71 397C88 142 300-24 606-24C938-24 1146 141 1146 405C1146 612 1025 727 726 802L575 842C379 893 299 958 299 1067C299 1208 429 1305 616 1305C804 1305 929 1210 945 1055L1125 1055C1117 1297 909 1467 622 1467C322 1467 112 1299 112 1059C112 863 230 746 496 678L681 630C875 580 960 505 960 383C960 241 818 138 623 138C417 138 269 241 252 397ZM1287 397C1304 142 1516-24 1822-24C2154-24 2362 141 2362 405C2362 612 2241 727 1942 802L1791 842C1595 893 1515 958 1515 1067C1515 1208 1645 1305 1832 1305C2020 1305 2145 1210 2161 1055L2341 1055C2333 1297 2125 1467 1838 1467C1538 1467 1328 1299 1328 1059C1328 863 1446 746 1712 678L1897 630C2091 580 2176 505 2176 383C2176 241 2034 138 1839 138C1633 138 1485 241 1468 397Z"  horiz-adv-x="2432" vert-adv-y="2048"  />

      
      <glyph glyph-name="uni54" unicode="&#x54;" d="M685 0L685 1281L1140 1281L1140 1443L50 1443L50 1281L505 1281L505 0Z"  horiz-adv-x="1190" vert-adv-y="2048"  />

      
      <glyph glyph-name="uni1E70" unicode="&#x1E70;" d="M685 0L685 1281L1140 1281L1140 1443L50 1443L50 1281L505 1281L505 0ZM528-127L245-425L411-425L592-233L598-233L779-425L945-425L662-127Z"  horiz-adv-x="1190" vert-adv-y="2048"  />

      
      <glyph glyph-name="uni1E6C" unicode="&#x1E6C;" d="M685 0L685 1281L1140 1281L1140 1443L50 1443L50 1281L505 1281L505 0ZM595-389C662-389 716-335 716-268C716-201 662-147 595-147C528-147 474-201 474-268C474-335 528-389 595-389Z"  horiz-adv-x="1190" vert-adv-y="2048"  />

      
      <glyph glyph-name="uni021A" unicode="&#x021A;" d="M685 0L685 1281L1140 1281L1140 1443L50 1443L50 1281L505 1281L505 0ZM538-486L672-127L520-127L412-486Z"  horiz-adv-x="1190" vert-adv-y="2048"  />

      
      <glyph glyph-name="uni1E6A" unicode="&#x1E6A;" d="M685 0L685 1281L1140 1281L1140 1443L50 1443L50 1281L505 1281L505 0ZM595 1585C662 1585 716 1639 716 1706C716 1773 662 1827 595 1827C528 1827 474 1773 474 1706C474 1639 528 1585 595 1585Z"  horiz-adv-x="1190" vert-adv-y="2048"  />

      
      <glyph glyph-name="uni0162" unicode="&#x0162;" d="M685 8L685 1281L1140 1281L1140 1443L50 1443L50 1281L505 1281L505 0L558 0L495-159L495-228L565-228C667-228 711-246 711-292C711-338 667-364 584-364C542-364 481-357 459-352L459-454C485-462 551-469 609-468C739-466 843-404 843-290C843-188 759-132 629-130L685 0Z"  horiz-adv-x="1190" vert-adv-y="2048"  />

      
      <glyph glyph-name="uni1E6E" unicode="&#x1E6E;" d="M685 0L685 1281L1140 1281L1140 1443L50 1443L50 1281L505 1281L505 0ZM912-217L278-217L278-333L912-333Z"  horiz-adv-x="1190" vert-adv-y="2048"  />

      
      <glyph glyph-name="uni0164" unicode="&#x0164;" d="M685 0L685 1281L1140 1281L1140 1443L50 1443L50 1281L505 1281L505 0ZM528 1550L662 1550L945 1848L779 1848L598 1656L592 1656L411 1848L245 1848Z"  horiz-adv-x="1190" vert-adv-y="2048"  />

      
      <glyph glyph-name="uni0166" unicode="&#x0166;" d="M1140 1281L1140 1443L50 1443L50 1281L505 1281L505 793L200 793L200 650L505 650L505 0L685 0L685 650L990 650L990 793L685 793L685 1281Z"  horiz-adv-x="1190" vert-adv-y="2048"  />

      
      <glyph glyph-name="uni55" unicode="&#x55;" d="M320 1443L140 1443L140 506C140 198 355-24 713-24C1071-24 1286 198 1286 506L1286 1443L1106 1443L1106 518C1106 300 963 142 713 142C463 142 320 300 320 518Z"  horiz-adv-x="1426" vert-adv-y="2048"  />

      
      <glyph glyph-name="unid9" unicode="&#xd9;" d="M320 1443L140 1443L140 506C140 198 355-24 713-24C1071-24 1286 198 1286 506L1286 1443L1106 1443L1106 518C1106 300 963 142 713 142C463 142 320 300 320 518ZM623 1560L777 1560L557 1849L363 1849Z"  horiz-adv-x="1426" vert-adv-y="2048"  />

      
      <glyph glyph-name="uni0214" unicode="&#x0214;" d="M320 1443L140 1443L140 506C140 198 355-24 713-24C1071-24 1286 198 1286 506L1286 1443L1106 1443L1106 518C1106 300 963 142 713 142C463 142 320 300 320 518ZM783 1560L937 1560L717 1849L523 1849ZM463 1560L617 1560L397 1849L203 1849Z"  horiz-adv-x="1426" vert-adv-y="2048"  />

      
      <glyph glyph-name="unida" unicode="&#xda;" d="M320 1443L140 1443L140 506C140 198 355-24 713-24C1071-24 1286 198 1286 506L1286 1443L1106 1443L1106 518C1106 300 963 142 713 142C463 142 320 300 320 518ZM803 1560L1063 1849L869 1849L649 1560Z"  horiz-adv-x="1426" vert-adv-y="2048"  />

      
      <glyph glyph-name="uni0170" unicode="&#x0170;" d="M320 1443L140 1443L140 506C140 198 355-24 713-24C1071-24 1286 198 1286 506L1286 1443L1106 1443L1106 518C1106 300 963 142 713 142C463 142 320 300 320 518ZM963 1560L1223 1849L1029 1849L809 1560ZM643 1560L903 1849L709 1849L489 1560Z"  horiz-adv-x="1426" vert-adv-y="2048"  />

      
      <glyph glyph-name="unidb" unicode="&#xdb;" d="M320 1443L140 1443L140 506C140 198 355-24 713-24C1071-24 1286 198 1286 506L1286 1443L1106 1443L1106 518C1106 300 963 142 713 142C463 142 320 300 320 518ZM646 1838L363 1540L529 1540L710 1732L716 1732L897 1540L1063 1540L780 1838Z"  horiz-adv-x="1426" vert-adv-y="2048"  />

      
      <glyph glyph-name="uni01D3" unicode="&#x01D3;" d="M320 1443L140 1443L140 506C140 198 355-24 713-24C1071-24 1286 198 1286 506L1286 1443L1106 1443L1106 518C1106 300 963 142 713 142C463 142 320 300 320 518ZM646 1550L780 1550L1063 1848L897 1848L716 1656L710 1656L529 1848L363 1848Z"  horiz-adv-x="1426" vert-adv-y="2048"  />

      
      <glyph glyph-name="uni1E76" unicode="&#x1E76;" d="M320 1443L140 1443L140 506C140 198 355-24 713-24C1071-24 1286 198 1286 506L1286 1443L1106 1443L1106 518C1106 300 963 142 713 142C463 142 320 300 320 518ZM646-127L363-425L529-425L710-233L716-233L897-425L1063-425L780-127Z"  horiz-adv-x="1426" vert-adv-y="2048"  />

      
      <glyph glyph-name="unidc" unicode="&#xdc;" d="M320 1443L140 1443L140 506C140 198 355-24 713-24C1071-24 1286 198 1286 506L1286 1443L1106 1443L1106 518C1106 300 963 142 713 142C463 142 320 300 320 518ZM527 1604C587 1604 637 1653 637 1714C637 1775 587 1824 527 1824C467 1824 417 1775 417 1714C417 1653 467 1604 527 1604ZM899 1604C959 1604 1009 1653 1009 1714C1009 1775 959 1824 899 1824C839 1824 789 1775 789 1714C789 1653 839 1604 899 1604Z"  horiz-adv-x="1426" vert-adv-y="2048"  />

      
      <glyph glyph-name="uni01DB" unicode="&#x01DB;" d="M320 1443L140 1443L140 506C140 198 355-24 713-24C1071-24 1286 198 1286 506L1286 1443L1106 1443L1106 518C1106 300 963 142 713 142C463 142 320 300 320 518ZM785 1830L617 2046L447 2046L639 1830ZM536 1554C593 1554 640 1601 640 1660C640 1719 593 1766 536 1766C478 1766 431 1719 431 1660C431 1601 478 1554 536 1554ZM890 1554C948 1554 995 1601 995 1660C995 1719 948 1766 890 1766C833 1766 786 1719 786 1660C786 1601 833 1554 890 1554Z"  horiz-adv-x="1426" vert-adv-y="2048"  />

      
      <glyph glyph-name="uni01D7" unicode="&#x01D7;" d="M320 1443L140 1443L140 506C140 198 355-24 713-24C1071-24 1286 198 1286 506L1286 1443L1106 1443L1106 518C1106 300 963 142 713 142C463 142 320 300 320 518ZM631 1830L777 1830L969 2046L799 2046ZM536 1554C593 1554 640 1601 640 1660C640 1719 593 1766 536 1766C478 1766 431 1719 431 1660C431 1601 478 1554 536 1554ZM890 1554C948 1554 995 1601 995 1660C995 1719 948 1766 890 1766C833 1766 786 1719 786 1660C786 1601 833 1554 890 1554Z"  horiz-adv-x="1426" vert-adv-y="2048"  />

      
      <glyph glyph-name="uni01D5" unicode="&#x01D5;" d="M320 1443L140 1443L140 506C140 198 355-24 713-24C1071-24 1286 198 1286 506L1286 1443L1106 1443L1106 518C1106 300 963 142 713 142C463 142 320 300 320 518ZM536 1766C478 1766 431 1719 431 1660C431 1601 478 1554 536 1554C593 1554 640 1601 640 1660C640 1719 593 1766 536 1766ZM396 2025L396 1909L1030 1909L1030 2025ZM890 1766C833 1766 786 1719 786 1660C786 1601 833 1554 890 1554C948 1554 995 1601 995 1660C995 1719 948 1766 890 1766Z"  horiz-adv-x="1426" vert-adv-y="2048"  />

      
      <glyph glyph-name="uni01D9" unicode="&#x01D9;" d="M320 1443L140 1443L140 506C140 198 355-24 713-24C1071-24 1286 198 1286 506L1286 1443L1106 1443L1106 518C1106 300 963 142 713 142C463 142 320 300 320 518ZM637 1816L789 1816L1053 2048L879 2048L716 1904L710 1904L547 2048L373 2048ZM536 1766C478 1766 431 1719 431 1660C431 1601 478 1554 536 1554C593 1554 640 1601 640 1660C640 1719 593 1766 536 1766ZM890 1766C833 1766 786 1719 786 1660C786 1601 833 1554 890 1554C948 1554 995 1601 995 1660C995 1719 948 1766 890 1766Z"  horiz-adv-x="1426" vert-adv-y="2048"  />

      
      <glyph glyph-name="uni1E72" unicode="&#x1E72;" d="M320 1443L140 1443L140 506C140 198 355-24 713-24C1071-24 1286 198 1286 506L1286 1443L1106 1443L1106 518C1106 300 963 142 713 142C463 142 320 300 320 518ZM527-339C587-339 637-290 637-229C637-168 587-119 527-119C467-119 417-168 417-229C417-290 467-339 527-339ZM899-339C959-339 1009-290 1009-229C1009-168 959-119 899-119C839-119 789-168 789-229C789-290 839-339 899-339Z"  horiz-adv-x="1426" vert-adv-y="2048"  />

      
      <glyph glyph-name="uni1E74" unicode="&#x1E74;" d="M320 1443L140 1443L140 506C140 198 355-24 713-24C1071-24 1286 198 1286 506L1286 1443L1106 1443L1106 518C1106 300 963 142 713 142C463 142 320 300 320 518ZM844-344C953-344 1032-248 1032-88L914-88C914-184 887-231 845-231C770-231 725-79 584-79C470-79 394-170 394-334L512-334C508-241 537-192 583-192C662-192 712-344 844-344Z"  horiz-adv-x="1426" vert-adv-y="2048"  />

      
      <glyph glyph-name="uni1EE6" unicode="&#x1EE6;" d="M320 1443L140 1443L140 506C140 198 355-24 713-24C1071-24 1286 198 1286 506L1286 1443L1106 1443L1106 518C1106 300 963 142 713 142C463 142 320 300 320 518ZM553 1753C582 1766 620 1772 653 1772C703 1772 740 1742 740 1704C740 1661 704 1622 650 1605L710 1527C805 1559 869 1630 869 1711C869 1809 788 1871 674 1871C631 1871 587 1864 553 1849Z"  horiz-adv-x="1426" vert-adv-y="2048"  />

      
      <glyph glyph-name="uni016C" unicode="&#x016C;" d="M320 1443L140 1443L140 506C140 198 355-24 713-24C1071-24 1286 198 1286 506L1286 1443L1106 1443L1106 518C1106 300 963 142 713 142C463 142 320 300 320 518ZM392 1848C405 1684 521 1542 713 1542C905 1542 1021 1684 1034 1848L907 1848C895 1727 818 1654 713 1654C608 1654 531 1727 519 1848Z"  horiz-adv-x="1426" vert-adv-y="2048"  />

      
      <glyph glyph-name="uni0216" unicode="&#x0216;" d="M320 1443L140 1443L140 506C140 198 355-24 713-24C1071-24 1286 198 1286 506L1286 1443L1106 1443L1106 518C1106 300 963 142 713 142C463 142 320 300 320 518ZM392 1542L519 1542C531 1663 608 1736 713 1736C818 1736 895 1663 907 1542L1034 1542C1021 1706 905 1848 713 1848C521 1848 405 1706 392 1542Z"  horiz-adv-x="1426" vert-adv-y="2048"  />

      
      <glyph glyph-name="uni1E78" unicode="&#x1E78;" d="M320 1443L140 1443L140 506C140 198 355-24 713-24C1071-24 1286 198 1286 506L1286 1443L1106 1443L1106 518C1106 300 963 142 713 142C463 142 320 300 320 518ZM839 1542C943 1542 1018 1635 1018 1781L907 1781C907 1697 882 1651 840 1651C762 1651 714 1799 589 1799C480 1799 408 1711 408 1561L519 1561C515 1642 544 1690 588 1690C664 1690 712 1542 839 1542ZM647 1850L793 1850L985 2046L815 2046Z"  horiz-adv-x="1426" vert-adv-y="2048"  />

      
      <glyph glyph-name="uni1EE4" unicode="&#x1EE4;" d="M320 1443L140 1443L140 506C140 198 355-24 713-24C1071-24 1286 198 1286 506L1286 1443L1106 1443L1106 518C1106 300 963 142 713 142C463 142 320 300 320 518ZM713-389C780-389 834-335 834-268C834-201 780-147 713-147C646-147 592-201 592-268C592-335 646-389 713-389Z"  horiz-adv-x="1426" vert-adv-y="2048"  />

      
      <glyph glyph-name="uni0168" unicode="&#x0168;" d="M320 1443L140 1443L140 506C140 198 355-24 713-24C1071-24 1286 198 1286 506L1286 1443L1106 1443L1106 518C1106 300 963 142 713 142C463 142 320 300 320 518ZM844 1580C953 1580 1032 1676 1032 1836L914 1836C914 1740 887 1693 845 1693C770 1693 725 1845 584 1845C470 1845 394 1754 394 1590L512 1590C508 1683 537 1732 583 1732C662 1732 712 1580 844 1580Z"  horiz-adv-x="1426" vert-adv-y="2048"  />

      
      <glyph glyph-name="uni016A" unicode="&#x016A;" d="M320 1443L140 1443L140 506C140 198 355-24 713-24C1071-24 1286 198 1286 506L1286 1443L1106 1443L1106 518C1106 300 963 142 713 142C463 142 320 300 320 518ZM1030 1750L396 1750L396 1634L1030 1634Z"  horiz-adv-x="1426" vert-adv-y="2048"  />

      
      <glyph glyph-name="uni1E7A" unicode="&#x1E7A;" d="M320 1443L140 1443L140 506C140 198 355-24 713-24C1071-24 1286 198 1286 506L1286 1443L1106 1443L1106 518C1106 300 963 142 713 142C463 142 320 300 320 518ZM1030 1592L1030 1708L396 1708L396 1592ZM536 1834C593 1834 640 1881 640 1940C640 1999 593 2046 536 2046C478 2046 431 1999 431 1940C431 1881 478 1834 536 1834ZM890 1834C948 1834 995 1881 995 1940C995 1999 948 2046 890 2046C833 2046 786 1999 786 1940C786 1881 833 1834 890 1834Z"  horiz-adv-x="1426" vert-adv-y="2048"  />

      
      <glyph glyph-name="uni016E" unicode="&#x016E;" d="M320 1443L140 1443L140 506C140 198 355-24 713-24C1071-24 1286 198 1286 506L1286 1443L1106 1443L1106 518C1106 300 963 142 713 142C463 142 320 300 320 518ZM713 1516C818 1516 904 1602 904 1707C904 1812 818 1898 713 1898C608 1898 522 1812 522 1707C522 1602 608 1516 713 1516ZM713 1604C656 1604 610 1650 610 1707C610 1764 656 1810 713 1810C770 1810 816 1764 816 1707C816 1650 770 1604 713 1604Z"  horiz-adv-x="1426" vert-adv-y="2048"  />

      
      <glyph glyph-name="uni0172" unicode="&#x0172;" d="M944-430C999-430 1044-422 1062-413L1062-292C1038-297 1009-301 981-301C916-301 862-269 862-204C862-134 930-61 1026 22C1205 177 1286 316 1286 506L1286 1443L1106 1443L1106 518C1106 289 952 142 713 142C474 142 320 289 320 518L320 1443L140 1443L140 506C140 186 368-24 713-24C756-24 808-14 854 0L854-4C766-76 716-154 716-242C716-355 814-430 944-430Z"  horiz-adv-x="1426" vert-adv-y="2048"  />

      
      <glyph glyph-name="uni01AF" unicode="&#x01AF;" d="M713-24C1058-24 1286 186 1286 506L1286 1315L1336 1315C1462 1315 1538 1385 1538 1501L1538 1690L1379 1690L1379 1531C1379 1471 1351 1443 1288 1443L1106 1443L1106 518C1106 289 952 142 713 142C474 142 320 289 320 518L320 1443L140 1443L140 506C140 186 368-24 713-24Z"  horiz-adv-x="1573" vert-adv-y="2048"  />

      
      <glyph glyph-name="uni1EEA" unicode="&#x1EEA;" d="M713-24C1058-24 1286 186 1286 506L1286 1315L1336 1315C1462 1315 1538 1385 1538 1501L1538 1690L1379 1690L1379 1531C1379 1471 1351 1443 1288 1443L1106 1443L1106 518C1106 289 952 142 713 142C474 142 320 289 320 518L320 1443L140 1443L140 506C140 186 368-24 713-24ZM623 1560L777 1560L557 1849L363 1849Z"  horiz-adv-x="1573" vert-adv-y="2048"  />

      
      <glyph glyph-name="uni1EE8" unicode="&#x1EE8;" d="M713-24C1058-24 1286 186 1286 506L1286 1315L1336 1315C1462 1315 1538 1385 1538 1501L1538 1690L1379 1690L1379 1531C1379 1471 1351 1443 1288 1443L1106 1443L1106 518C1106 289 952 142 713 142C474 142 320 289 320 518L320 1443L140 1443L140 506C140 186 368-24 713-24ZM803 1560L1063 1849L869 1849L649 1560Z"  horiz-adv-x="1573" vert-adv-y="2048"  />

      
      <glyph glyph-name="uni1EF0" unicode="&#x1EF0;" d="M713-24C1058-24 1286 186 1286 506L1286 1315L1336 1315C1462 1315 1538 1385 1538 1501L1538 1690L1379 1690L1379 1531C1379 1471 1351 1443 1288 1443L1106 1443L1106 518C1106 289 952 142 713 142C474 142 320 289 320 518L320 1443L140 1443L140 506C140 186 368-24 713-24ZM713-389C780-389 834-335 834-268C834-201 780-147 713-147C646-147 592-201 592-268C592-335 646-389 713-389Z"  horiz-adv-x="1573" vert-adv-y="2048"  />

      
      <glyph glyph-name="uni1EEC" unicode="&#x1EEC;" d="M713-24C1058-24 1286 186 1286 506L1286 1315L1336 1315C1462 1315 1538 1385 1538 1501L1538 1690L1379 1690L1379 1531C1379 1471 1351 1443 1288 1443L1106 1443L1106 518C1106 289 952 142 713 142C474 142 320 289 320 518L320 1443L140 1443L140 506C140 186 368-24 713-24ZM553 1753C582 1766 620 1772 653 1772C703 1772 740 1742 740 1704C740 1661 704 1622 650 1605L710 1527C805 1559 869 1630 869 1711C869 1809 788 1871 674 1871C631 1871 587 1864 553 1849Z"  horiz-adv-x="1573" vert-adv-y="2048"  />

      
      <glyph glyph-name="uni1EEE" unicode="&#x1EEE;" d="M713-24C1058-24 1286 186 1286 506L1286 1315L1336 1315C1462 1315 1538 1385 1538 1501L1538 1690L1379 1690L1379 1531C1379 1471 1351 1443 1288 1443L1106 1443L1106 518C1106 289 952 142 713 142C474 142 320 289 320 518L320 1443L140 1443L140 506C140 186 368-24 713-24ZM844 1580C953 1580 1032 1676 1032 1836L914 1836C914 1740 887 1693 845 1693C770 1693 725 1845 584 1845C470 1845 394 1754 394 1590L512 1590C508 1683 537 1732 583 1732C662 1732 712 1580 844 1580Z"  horiz-adv-x="1573" vert-adv-y="2048"  />

      
      <glyph glyph-name="uni56" unicode="&#x56;" d="M735 0L1267 1443L1078 1443L649 219L643 219L214 1443L25 1443L557 0Z"  horiz-adv-x="1292" vert-adv-y="2048"  />

      
      <glyph glyph-name="uni1E7C" unicode="&#x1E7C;" d="M735 0L1267 1443L1078 1443L649 219L643 219L214 1443L25 1443L557 0ZM777 1580C886 1580 965 1676 965 1836L847 1836C847 1740 820 1693 778 1693C703 1693 658 1845 517 1845C403 1845 327 1754 327 1590L445 1590C441 1683 470 1732 516 1732C595 1732 645 1580 777 1580Z"  horiz-adv-x="1292" vert-adv-y="2048"  />

      
      <glyph glyph-name="uni1E7E" unicode="&#x1E7E;" d="M735 0L1267 1443L1078 1443L649 219L643 219L214 1443L25 1443L557 0ZM646-389C713-389 767-335 767-268C767-201 713-147 646-147C579-147 525-201 525-268C525-335 579-389 646-389Z"  horiz-adv-x="1292" vert-adv-y="2048"  />

      
      <glyph glyph-name="uni57" unicode="&#x57;" d="M941 1145L951 1145L1284 0L1454 0L1847 1443L1659 1443L1370 265L1362 265L1037 1443L855 1443L530 265L522 265L233 1443L45 1443L438 0L608 0Z"  horiz-adv-x="1892" vert-adv-y="2048"  />

      
      <glyph glyph-name="uni1E80" unicode="&#x1E80;" d="M941 1145L951 1145L1284 0L1454 0L1847 1443L1659 1443L1370 265L1362 265L1037 1443L855 1443L530 265L522 265L233 1443L45 1443L438 0L608 0ZM856 1560L1010 1560L790 1849L596 1849Z"  horiz-adv-x="1892" vert-adv-y="2048"  />

      
      <glyph glyph-name="uni1E82" unicode="&#x1E82;" d="M941 1145L951 1145L1284 0L1454 0L1847 1443L1659 1443L1370 265L1362 265L1037 1443L855 1443L530 265L522 265L233 1443L45 1443L438 0L608 0ZM1036 1560L1296 1849L1102 1849L882 1560Z"  horiz-adv-x="1892" vert-adv-y="2048"  />

      
      <glyph glyph-name="uni1E86" unicode="&#x1E86;" d="M941 1145L951 1145L1284 0L1454 0L1847 1443L1659 1443L1370 265L1362 265L1037 1443L855 1443L530 265L522 265L233 1443L45 1443L438 0L608 0ZM946 1585C1013 1585 1067 1639 1067 1706C1067 1773 1013 1827 946 1827C879 1827 825 1773 825 1706C825 1639 879 1585 946 1585Z"  horiz-adv-x="1892" vert-adv-y="2048"  />

      
      <glyph glyph-name="uni1E88" unicode="&#x1E88;" d="M941 1145L951 1145L1284 0L1454 0L1847 1443L1659 1443L1370 265L1362 265L1037 1443L855 1443L530 265L522 265L233 1443L45 1443L438 0L608 0ZM946-389C1013-389 1067-335 1067-268C1067-201 1013-147 946-147C879-147 825-201 825-268C825-335 879-389 946-389Z"  horiz-adv-x="1892" vert-adv-y="2048"  />

      
      <glyph glyph-name="uni1E84" unicode="&#x1E84;" d="M941 1145L951 1145L1284 0L1454 0L1847 1443L1659 1443L1370 265L1362 265L1037 1443L855 1443L530 265L522 265L233 1443L45 1443L438 0L608 0ZM760 1604C820 1604 870 1653 870 1714C870 1775 820 1824 760 1824C700 1824 650 1775 650 1714C650 1653 700 1604 760 1604ZM1132 1604C1192 1604 1242 1653 1242 1714C1242 1775 1192 1824 1132 1824C1072 1824 1022 1775 1022 1714C1022 1653 1072 1604 1132 1604Z"  horiz-adv-x="1892" vert-adv-y="2048"  />

      
      <glyph glyph-name="uni0174" unicode="&#x0174;" d="M941 1145L951 1145L1284 0L1454 0L1847 1443L1659 1443L1370 265L1362 265L1037 1443L855 1443L530 265L522 265L233 1443L45 1443L438 0L608 0ZM879 1838L596 1540L762 1540L943 1732L949 1732L1130 1540L1296 1540L1013 1838Z"  horiz-adv-x="1892" vert-adv-y="2048"  />

      
      <glyph glyph-name="uni58" unicode="&#x58;" d="M45 0L249 0L638 575L645 575L1028 0L1244 0L757 715L757 721L1255 1443L1050 1443L660 863L653 863L268 1443L51 1443L536 730L536 723Z"  horiz-adv-x="1300" vert-adv-y="2048"  />

      
      <glyph glyph-name="uni1E8A" unicode="&#x1E8A;" d="M45 0L249 0L638 575L645 575L1028 0L1244 0L757 715L757 721L1255 1443L1050 1443L660 863L653 863L268 1443L51 1443L536 730L536 723ZM650 1585C717 1585 771 1639 771 1706C771 1773 717 1827 650 1827C583 1827 529 1773 529 1706C529 1639 583 1585 650 1585Z"  horiz-adv-x="1300" vert-adv-y="2048"  />

      
      <glyph glyph-name="uni1E8C" unicode="&#x1E8C;" d="M45 0L249 0L638 575L645 575L1028 0L1244 0L757 715L757 721L1255 1443L1050 1443L660 863L653 863L268 1443L51 1443L536 730L536 723ZM464 1604C524 1604 574 1653 574 1714C574 1775 524 1824 464 1824C404 1824 354 1775 354 1714C354 1653 404 1604 464 1604ZM836 1604C896 1604 946 1653 946 1714C946 1775 896 1824 836 1824C776 1824 726 1775 726 1714C726 1653 776 1604 836 1604Z"  horiz-adv-x="1300" vert-adv-y="2048"  />

      
      <glyph glyph-name="uni59" unicode="&#x59;" d="M717 0L717 621L1229 1443L1024 1443L630 795L624 795L230 1443L25 1443L537 621L537 0Z"  horiz-adv-x="1254" vert-adv-y="2048"  />

      
      <glyph glyph-name="uni1EF2" unicode="&#x1EF2;" d="M717 0L717 621L1229 1443L1024 1443L630 795L624 795L230 1443L25 1443L537 621L537 0ZM537 1560L691 1560L471 1849L277 1849Z"  horiz-adv-x="1254" vert-adv-y="2048"  />

      
      <glyph glyph-name="unidd" unicode="&#xdd;" d="M717 0L717 621L1229 1443L1024 1443L630 795L624 795L230 1443L25 1443L537 621L537 0ZM717 1560L977 1849L783 1849L563 1560Z"  horiz-adv-x="1254" vert-adv-y="2048"  />

      
      <glyph glyph-name="uni1E8E" unicode="&#x1E8E;" d="M717 0L717 621L1229 1443L1024 1443L630 795L624 795L230 1443L25 1443L537 621L537 0ZM627 1585C694 1585 748 1639 748 1706C748 1773 694 1827 627 1827C560 1827 506 1773 506 1706C506 1639 560 1585 627 1585Z"  horiz-adv-x="1254" vert-adv-y="2048"  />

      
      <glyph glyph-name="uni1EF4" unicode="&#x1EF4;" d="M717 0L717 621L1229 1443L1024 1443L630 795L624 795L230 1443L25 1443L537 621L537 0ZM627-389C694-389 748-335 748-268C748-201 694-147 627-147C560-147 506-201 506-268C506-335 560-389 627-389Z"  horiz-adv-x="1254" vert-adv-y="2048"  />

      
      <glyph glyph-name="uni0178" unicode="&#x0178;" d="M717 0L717 621L1229 1443L1024 1443L630 795L624 795L230 1443L25 1443L537 621L537 0ZM441 1604C501 1604 551 1653 551 1714C551 1775 501 1824 441 1824C381 1824 331 1775 331 1714C331 1653 381 1604 441 1604ZM813 1604C873 1604 923 1653 923 1714C923 1775 873 1824 813 1824C753 1824 703 1775 703 1714C703 1653 753 1604 813 1604Z"  horiz-adv-x="1254" vert-adv-y="2048"  />

      
      <glyph glyph-name="uni1EF8" unicode="&#x1EF8;" d="M717 0L717 621L1229 1443L1024 1443L630 795L624 795L230 1443L25 1443L537 621L537 0ZM758 1580C867 1580 946 1676 946 1836L828 1836C828 1740 801 1693 759 1693C684 1693 639 1845 498 1845C384 1845 308 1754 308 1590L426 1590C422 1683 451 1732 497 1732C576 1732 626 1580 758 1580Z"  horiz-adv-x="1254" vert-adv-y="2048"  />

      
      <glyph glyph-name="uni0176" unicode="&#x0176;" d="M717 0L717 621L1229 1443L1024 1443L630 795L624 795L230 1443L25 1443L537 621L537 0ZM560 1838L277 1540L443 1540L624 1732L630 1732L811 1540L977 1540L694 1838Z"  horiz-adv-x="1254" vert-adv-y="2048"  />

      
      <glyph glyph-name="uni0232" unicode="&#x0232;" d="M717 0L717 621L1229 1443L1024 1443L630 795L624 795L230 1443L25 1443L537 621L537 0ZM944 1750L310 1750L310 1634L944 1634Z"  horiz-adv-x="1254" vert-adv-y="2048"  />

      
      <glyph glyph-name="uni1EF6" unicode="&#x1EF6;" d="M717 0L717 621L1229 1443L1024 1443L630 795L624 795L230 1443L25 1443L537 621L537 0ZM467 1753C496 1766 534 1772 567 1772C617 1772 654 1742 654 1704C654 1661 618 1622 564 1605L624 1527C719 1559 783 1630 783 1711C783 1809 702 1871 588 1871C545 1871 501 1864 467 1849Z"  horiz-adv-x="1254" vert-adv-y="2048"  />

      
      </font>
</defs>
</svg>
